<?xml version="1.0" standalone="no"?>
<!DOCTYPE svg PUBLIC "-//W3C//DTD SVG 20010904//EN"
 "http://www.w3.org/TR/2001/REC-SVG-20010904/DTD/svg10.dtd">
<svg version="1.0" xmlns="http://www.w3.org/2000/svg"
 width="700.000000pt" height="700.000000pt" viewBox="0 0 700.000000 700.000000"
 preserveAspectRatio="xMidYMid meet">
<metadata>
Created by potrace 1.11, written by Peter Selinger 2001-2013
</metadata>
<g transform="translate(0.000000,700.000000) scale(0.100000,-0.100000)"
fill="#000000" stroke="none">
<path d="M0 6616 l0 -35 3500 0 3500 0 0 35 0 34 -3500 0 -3500 0 0 -34z"/>
<path d="M1000 6466 l-35 -13 1 -159 c1 -87 4 -297 7 -466 l5 -308 -489 0
-489 0 0 -35 0 -35 490 0 490 0 1 -57 c0 -32 2 -139 4 -238 2 -99 6 -312 9
-472 l6 -293 -500 0 -500 0 0 -35 0 -35 500 0 c469 0 500 -1 501 -17 0 -10 2
-144 5 -298 3 -157 9 -291 15 -306 17 -43 83 -68 123 -47 11 5 55 45 97 87 47
48 144 124 260 204 208 145 316 236 378 320 l43 57 228 0 228 0 7 -37 c43
-236 395 -458 820 -519 154 -22 432 -24 560 -4 44 7 89 14 100 15 91 13 260
68 371 121 210 100 353 246 379 387 l7 37 1189 0 1189 0 0 35 0 35 -1189 0
-1189 0 -7 38 c-39 206 -325 409 -695 492 -129 29 -250 42 -399 44 -139 2
-284 -12 -411 -38 -367 -76 -645 -255 -714 -459 -9 -26 -16 -54 -16 -62 0 -13
-33 -15 -214 -15 l-214 0 13 49 c53 201 -51 437 -230 524 -144 70 -343 48
-517 -57 l-55 -33 2 171 c2 94 4 224 4 289 l1 117 2915 0 2915 0 0 35 0 35
-2912 2 -2913 3 1 150 c1 83 4 291 7 463 l5 313 -26 10 c-44 17 -124 20 -162
5z m2547 -1628 c186 -64 322 -198 389 -383 l24 -65 -466 0 -466 0 3 98 c2 95
18 162 53 229 25 50 95 111 150 132 73 27 214 22 313 -11z m-2039 -25 c84 -54
123 -155 119 -308 -2 -49 -6 -96 -10 -102 -6 -10 -61 -13 -218 -13 -160 0
-209 3 -210 13 -3 57 3 201 10 219 5 13 8 25 8 28 -1 12 35 77 56 102 61 71
182 101 245 61z m72 -498 c0 -27 -89 -150 -162 -225 -51 -51 -168 -156 -198
-177 -30 -21 -29 -33 -34 225 l-4 182 199 0 c109 0 199 -2 199 -5z m2388 -102
c-6 -130 -30 -206 -86 -272 -61 -72 -117 -96 -232 -98 -113 -2 -175 13 -285
67 -94 47 -176 120 -233 209 -40 61 -82 157 -82 186 0 13 63 15 461 15 l461 0
-4 -107z"/>
<path d="M5465 3828 c-66 -3 -142 -9 -170 -13 -296 -39 -576 -163 -730 -323
-49 -50 -100 -143 -111 -198 -4 -22 -12 -34 -23 -35 -9 0 -187 0 -396 1 -209
1 -443 2 -520 2 -77 0 -899 -1 -1827 -3 l-1688 -2 0 -34 0 -33 1433 -1 c787
-1 1447 0 1465 1 17 1 32 0 32 -3 0 -2 -28 -14 -62 -27 -35 -12 -67 -26 -72
-31 -6 -5 -16 -9 -23 -9 -22 0 -164 -90 -225 -142 -114 -98 -170 -203 -170
-318 0 -215 176 -385 545 -528 9 -4 -643 -7 -1450 -7 l-1468 0 -3 -32 c-2 -22
1 -33 10 -33 11 -1 3401 -8 3508 -8 293 0 3441 7 3458 8 18 0 22 6 22 33 l0
33 -1470 0 c-808 -1 -1466 2 -1462 5 4 3 27 12 52 19 106 33 267 126 351 202
190 174 202 398 30 581 -79 84 -243 183 -396 238 l-50 18 198 0 c181 1 197 0
197 -16 0 -29 28 -101 57 -145 84 -135 256 -249 489 -326 83 -28 129 -41 164
-48 8 -2 31 -6 50 -10 19 -3 44 -8 55 -9 11 -2 40 -6 65 -10 73 -11 358 -13
450 -3 339 35 654 170 810 345 48 54 87 129 96 186 l7 37 153 0 154 0 0 34 0
34 -112 0 c-215 1 -195 -2 -201 36 -13 82 -90 195 -178 263 -37 28 -43 32
-109 76 -147 96 -424 177 -663 193 -140 9 -144 9 -272 2z m88 -103 c209 -44
378 -193 453 -400 l24 -65 -23 -1 c-28 -1 -854 -1 -886 0 l-24 1 6 108 c6 124
30 198 84 261 46 54 85 81 141 96 45 12 167 12 225 0z m488 -565 c1 -16 2 -40
2 -52 4 -110 -35 -234 -95 -302 -67 -77 -103 -91 -238 -91 -86 0 -129 5 -170
19 -155 53 -257 130 -341 260 -38 57 -79 152 -79 181 0 13 63 15 460 15 l460
0 1 -30z m-2537 -4 c104 -24 237 -104 310 -188 161 -183 205 -486 99 -680 -55
-100 -150 -148 -288 -143 -164 6 -292 62 -410 180 -129 129 -188 276 -184 457
4 203 69 316 214 375 31 13 201 12 259 -1z"/>
<path d="M3270 1559 c-268 -34 -464 -100 -635 -214 -107 -71 -179 -146 -218
-226 l-33 -67 -253 -1 c-145 -1 -262 -6 -272 -12 -24 -12 -49 -60 -44 -85 2
-10 4 -23 4 -27 1 -4 13 -19 27 -32 l27 -25 256 0 257 0 21 -47 c96 -225 432
-405 858 -460 79 -10 394 -10 470 0 110 15 130 18 190 32 315 72 595 248 666
421 l23 54 247 0 c137 0 259 4 273 10 15 5 33 25 42 44 20 41 10 81 -28 109
-23 18 -44 19 -279 18 l-254 -1 -25 57 c-28 67 -120 169 -200 223 -241 163
-526 239 -890 237 -96 0 -200 -4 -230 -8z m240 -104 c113 -29 187 -72 275
-160 59 -59 90 -100 118 -156 20 -42 37 -79 37 -82 0 -3 -205 -7 -455 -7
l-455 0 0 56 c0 60 22 160 46 207 39 75 121 138 201 155 55 12 159 6 233 -13z
m457 -668 c-7 -107 -38 -188 -94 -248 -62 -66 -124 -91 -227 -90 -45 0 -91 3
-103 6 -13 3 -33 7 -44 10 -179 39 -355 190 -422 363 l-17 42 456 0 457 0 -6
-83z"/>
</g>
</svg>
