<?xml version="1.0" standalone="no"?>
<!DOCTYPE svg PUBLIC "-//W3C//DTD SVG 20010904//EN"
 "http://www.w3.org/TR/2001/REC-SVG-20010904/DTD/svg10.dtd">
<svg version="1.0" xmlns="http://www.w3.org/2000/svg"
 width="700.000000pt" height="700.000000pt" viewBox="0 0 700.000000 700.000000"
 preserveAspectRatio="xMidYMid meet">
<metadata>
Created by potrace 1.11, written by Peter Selinger 2001-2013
</metadata>
<g transform="translate(0.000000,700.000000) scale(0.100000,-0.100000)"
fill="#000000" stroke="none">
<path d="M1323 6571 c-233 -169 -415 -466 -468 -766 -17 -95 -22 -437 -9 -602
l7 -83 -427 0 -426 0 0 -25 0 -25 427 -2 428 -3 7 -40 c45 -247 64 -332 98
-459 l41 -147 -67 -74 -67 -75 -434 0 -433 0 0 -25 0 -25 411 0 411 0 -94
-107 c-204 -233 -326 -403 -424 -588 l-56 -105 -124 0 -124 0 0 -25 0 -25 116
0 c107 0 116 -1 109 -17 -3 -10 -17 -58 -30 -106 -50 -186 -56 -387 -17 -579
l18 -88 -98 0 c-98 0 -98 0 -98 -25 0 -24 1 -24 106 -27 l106 -3 23 -67 c58
-166 173 -345 301 -471 99 -96 174 -150 289 -207 l100 -50 -462 0 -463 0 0
-25 0 -25 608 -2 c334 -2 689 -1 789 1 l181 3 6 -53 c23 -228 11 -485 -29
-622 -76 -262 -234 -422 -451 -458 -93 -15 -175 -1 -270 46 -67 33 -170 121
-194 165 -9 16 -6 16 33 3 59 -21 149 -12 213 20 59 30 128 102 155 161 78
178 -31 417 -214 467 -121 33 -274 -16 -366 -116 -64 -71 -91 -141 -91 -239 0
-270 189 -525 453 -612 71 -24 99 -28 202 -28 105 0 130 3 198 27 195 68 351
224 436 437 59 149 66 206 65 518 l-1 283 1411 -1 c776 -1 1963 -1 2639 -1
l1227 1 0 25 0 25 -1062 0 -1063 1 56 23 c282 117 406 274 355 448 -35 120
-148 217 -356 304 l-55 23 145 1 145 0 18 -62 c47 -160 308 -312 614 -357 105
-16 343 -13 453 4 305 50 554 211 590 380 6 30 6 30 83 33 74 3 77 4 77 27 0
24 -2 25 -75 25 -52 0 -77 4 -79 13 -32 109 -80 171 -190 245 -383 256 -1100
217 -1394 -76 -42 -42 -92 -130 -92 -164 0 -16 -90 -17 -1423 -18 l-1423 0
-12 89 c-39 290 -198 529 -442 665 l-65 36 391 0 391 0 6 -231 c6 -259 9 -269
75 -269 31 0 44 9 91 59 31 33 112 99 181 147 173 120 254 187 297 245 l37 49
172 0 172 0 7 -32 c34 -162 277 -319 580 -375 111 -20 378 -23 485 -4 179 31
357 102 462 185 71 56 107 104 129 169 l18 52 850 3 851 2 0 25 0 25 -849 0
-850 0 -15 53 c-43 146 -227 274 -495 344 -80 21 -126 26 -278 30 -302 9 -501
-36 -693 -155 -103 -64 -157 -127 -191 -222 l-16 -45 -157 -3 -157 -3 8 28 c5
16 8 64 8 108 0 65 -5 91 -27 136 -35 75 -88 133 -154 165 -96 47 -249 32
-371 -37 l-53 -29 0 177 c0 98 3 195 6 216 l7 37 2138 0 2139 0 0 25 0 25
-2142 0 -2141 0 6 349 7 349 -32 11 c-39 14 -67 14 -107 0 l-32 -11 7 -349 7
-349 -617 0 -617 0 59 73 c185 227 309 435 377 632 l31 90 2597 3 2597 2 0 25
0 25 -2591 0 -2591 0 6 33 c15 74 18 301 6 390 -42 310 -182 677 -357 939 -50
75 -87 118 -101 118 -5 0 -27 -13 -49 -29z m235 -543 c35 -122 45 -196 45
-358 0 -199 -28 -348 -97 -512 l-16 -38 -250 0 -250 0 0 79 c0 317 132 598
375 796 41 34 153 105 165 105 4 0 17 -33 28 -72z m-98 -963 c0 -3 -11 -27
-24 -53 -72 -142 -322 -476 -337 -450 -23 42 -99 407 -99 479 l0 29 230 0
c127 0 230 -2 230 -5z m1113 -937 c4 -51 8 -230 9 -398 l3 -305 -480 0 c-264
0 -528 2 -588 4 -106 5 -108 5 -113 30 -23 98 -74 295 -120 462 -30 108 -54
202 -54 208 0 7 14 30 32 52 l31 39 637 0 638 0 5 -92z m-1449 -140 c71 -256
144 -556 138 -563 -8 -7 -622 -6 -622 1 0 9 82 123 153 214 74 96 310 369 318
370 4 0 9 -10 13 -22z m3365 -227 c121 -37 219 -123 272 -236 51 -110 84 -100
-307 -103 l-341 -2 -6 34 c-7 44 6 140 25 186 22 52 67 101 113 121 54 25 164
25 244 0z m-1509 -29 c14 -10 36 -40 50 -68 20 -40 25 -64 25 -129 0 -123 11
-115 -171 -115 l-156 0 4 98 c3 89 6 104 33 148 53 86 147 115 215 66z m-1910
-394 c-30 -17 -92 -68 -137 -113 -140 -141 -199 -296 -190 -500 2 -60 8 -118
12 -127 7 -17 -6 -18 -179 -18 l-186 0 -1 38 c-7 237 51 464 176 688 l36 64
262 0 262 0 -55 -32z m1950 25 c0 -12 -51 -86 -85 -124 -43 -48 -185 -179
-195 -179 -11 0 -22 202 -14 260 l7 50 143 0 c79 0 144 -3 144 -7z m1788 -75
c-8 -150 -72 -244 -180 -268 -117 -26 -290 32 -386 130 -48 48 -122 174 -122
206 0 12 60 14 346 14 l347 0 -5 -82z m-3448 -270 c6 -29 27 -129 46 -223 19
-93 36 -180 39 -192 l5 -23 -261 0 -261 0 4 93 c3 77 9 103 32 151 52 105 159
189 291 227 91 26 92 26 105 -33z m244 36 c139 -36 277 -131 362 -250 43 -60
103 -183 104 -212 0 -10 -52 -12 -241 -10 l-241 3 -44 215 c-24 118 -46 227
-50 243 -5 24 -3 27 21 27 15 0 55 -7 89 -16z m4377 -124 c161 -31 290 -141
350 -300 l19 -50 -345 0 -344 0 -6 33 c-9 48 12 154 43 210 53 98 145 133 283
107z m-5177 -468 c68 -136 181 -254 302 -317 42 -21 55 -24 77 -16 30 12 51
53 42 82 -4 11 -32 37 -64 58 -71 49 -154 138 -187 202 -13 27 -24 51 -24 54
0 3 114 5 254 5 l254 0 16 -87 c24 -130 63 -384 77 -501 10 -86 10 -105 -1
-112 -22 -14 -195 -23 -309 -17 -220 12 -418 100 -592 265 -115 108 -221 288
-244 415 l-7 37 186 0 186 0 34 -68z m1284 -25 c3 -107 -14 -184 -65 -287 -49
-97 -160 -211 -253 -258 -78 -40 -72 -49 -95 138 -9 74 -30 214 -46 310 -16
96 -29 178 -29 182 0 5 109 7 243 6 l242 -3 3 -88z m1922 81 c-147 -63 -219
-106 -286 -173 -78 -77 -104 -131 -104 -215 0 -146 130 -283 352 -371 l73 -28
-1159 -1 c-638 0 -1157 2 -1155 4 2 2 32 15 66 29 134 55 314 210 391 340 62
103 102 210 120 321 l17 106 855 -1 c616 0 848 -3 830 -11z m2344 -80 c-1 -76
-5 -96 -30 -145 -43 -84 -94 -117 -188 -121 -139 -7 -263 44 -359 148 -47 51
-107 160 -107 195 0 13 40 15 343 13 l342 -3 -1 -87z m-1865 53 c205 -64 332
-256 319 -481 -12 -194 -117 -284 -303 -259 -203 27 -369 195 -394 398 -21
164 28 288 134 344 43 23 168 22 244 -2z"/>
<path d="M4295 1309 c-167 -17 -334 -70 -466 -149 -76 -45 -172 -143 -190
-195 l-13 -35 -193 0 c-180 0 -194 -1 -213 -20 -11 -11 -20 -32 -20 -47 1 -66
25 -73 242 -73 l183 0 23 -49 c26 -57 111 -140 196 -190 238 -142 630 -185
956 -105 230 57 422 181 475 308 l15 36 191 0 c188 0 190 0 214 25 33 32 32
68 -1 94 -25 20 -40 21 -215 21 l-188 0 -19 43 c-28 61 -83 119 -163 172 -202
135 -506 196 -814 164z m125 -70 c138 -21 266 -111 329 -228 17 -32 31 -64 31
-70 0 -8 -98 -11 -340 -11 l-340 0 6 58 c15 127 76 219 165 247 55 17 68 17
149 4z m388 -512 c-6 -69 -36 -148 -71 -185 -47 -51 -92 -65 -196 -60 -81 4
-107 9 -163 36 -104 47 -201 147 -237 245 l-11 27 342 0 341 0 -5 -63z"/>
</g>
</svg>
