<svg xmlns="http://www.w3.org/2000/svg" xmlns:xlink="http://www.w3.org/1999/xlink" id="svg228" width="793.7" height="250" version="1.2" viewBox="0 0 79.67 25.09"><defs><path id="path140" fill="currentColor" d="M215-316c0-9-8-17-17-17s-17 8-17 17v151l-87-31v-162c0-9-8-17-17-17s-17 8-17 17v150l-39-13c-10-4-21 4-21 15v64c0 7 5 13 11 15l49 18V55L21 41C11 37 0 45 0 56v65c0 7 5 13 11 15l49 17v163c0 9 8 17 17 17s17-8 17-17V165l87 31v162c0 9 8 17 17 17s17-8 17-17V208l39 13c10 4 21-4 21-15v-64c0-7-5-13-11-15l-49-18V-55l39 14c10 4 21-4 21-15v-65c0-7-5-13-11-15l-49-17zM94 67V-97l87 30V97z"/><path id="path28" fill="currentColor" d="M215 114c-50 0-71-42-71-88 0-79 60-140 139-140 50 0 70 42 70 88 0 79-59 140-138 140zM497 0c0-43-35-74-73-95-54-29-114-40-175-40S127-124 73-95C35-74 0-43 0 0s35 74 73 95c54 29 115 40 176 40s121-11 175-40c38-21 73-52 73-95z"/><path id="path32" fill="currentColor" d="M25 44l-1-69c0-4-1-7-1-11 0-22 2-44 4-66 46 38 96 80 96 139 0 34-14 69-44 69-31 0-53-29-54-62zm-39-180l-11 599c8 4 16 7 25 7s17-3 25-7l-6-349c26 19 56 30 88 30 53 0 93-46 93-100 0-82-90-118-153-169-14-11-22-32-40-32-12 0-21 9-21 21z"/></defs><style id="style2">tspan{white-space:pre}</style><text id="text6" x="3.79" y=".57" fill="currentColor" font-family="serif" font-size="2.2" text-anchor="start"></text><path id="line8" stroke="currentColor" stroke-linecap="round" stroke-linejoin="round" stroke-width=".08" d="M3.83 7.35h72"/><path id="line10" stroke="currentColor" stroke-linecap="round" stroke-linejoin="round" stroke-width=".08" d="M3.83 6.35h72"/><path id="line12" stroke="currentColor" stroke-linecap="round" stroke-linejoin="round" stroke-width=".08" d="M3.83 5.35h72"/><path id="line14" stroke="currentColor" stroke-linecap="round" stroke-linejoin="round" stroke-width=".08" d="M3.83 4.35h72"/><path id="line16" stroke="currentColor" stroke-linecap="round" stroke-linejoin="round" stroke-width=".08" d="M3.83 3.35h72"/><rect id="rect18" width="2.98" height=".18" x="45.53" y="8.26" fill="currentColor" ry=".09"/><rect id="rect20" width="2.98" height=".18" x="9.1" y="8.26" fill="currentColor" ry=".09"/><rect id="rect22" width=".15" height="4" x="75.73" y="3.35" fill="currentColor" ry="0"/><rect id="rect24" width=".15" height="4" x="39.67" y="3.35" fill="currentColor" ry="0"/><rect id="rect26" width=".15" height="4" x="39.29" y="3.35" fill="currentColor" ry="0"/><a id="a30" color="inherit" transform="translate(0 -1.33)" xlink:href="textedit://C:/Users/marry/Documents/Programming/web/HamoDirector/learning/triad/triad.ly:18:5:6"><use transform="matrix(.004 0 0 -.004 46.03 9.68)" xlink:href="#path28"/></a><a id="a38" color="inherit" transform="translate(0 -1.33)" xlink:href="textedit://C:/Users/marry/Documents/Programming/web/HamoDirector/learning/triad/triad.ly:17:4:5"><use transform="matrix(.004 0 0 -.004 40.92 6.68)" xlink:href="#path32"/><use id="path34" transform="matrix(.004 0 0 -.004 41.83 5.18)" xlink:href="#path32"/><use id="path36" transform="matrix(.004 0 0 -.004 42.73 7.18)" xlink:href="#path32"/></a><a id="a42" color="inherit" transform="translate(0 -1.33)" xlink:href="textedit://C:/Users/marry/Documents/Programming/web/HamoDirector/learning/triad/triad.ly:18:11:12"><use id="path40" transform="matrix(.004 0 0 -.004 46.03 7.68)" xlink:href="#path28"/></a><a id="a46" color="inherit" transform="translate(0 -1.33)" xlink:href="textedit://C:/Users/marry/Documents/Programming/web/HamoDirector/learning/triad/triad.ly:18:8:9"><use id="path44" transform="matrix(.004 0 0 -.004 46.03 8.68)" xlink:href="#path28"/></a><a id="a50" color="inherit" transform="translate(0 -1.33)" xlink:href="textedit://C:/Users/marry/Documents/Programming/web/HamoDirector/learning/triad/triad.ly:18:31:32"><use id="path48" transform="matrix(.004 0 0 -.004 65.83 5.68)" xlink:href="#path28"/></a><a id="a54" color="inherit" transform="translate(0 -1.33)" xlink:href="textedit://C:/Users/marry/Documents/Programming/web/HamoDirector/learning/triad/triad.ly:18:16:17"><use id="path52" transform="matrix(.004 0 0 -.004 55.93 8.18)" xlink:href="#path28"/></a><a id="a58" color="inherit" transform="translate(0 -1.33)" xlink:href="textedit://C:/Users/marry/Documents/Programming/web/HamoDirector/learning/triad/triad.ly:18:27:28"><use id="path56" transform="matrix(.004 0 0 -.004 65.83 6.68)" xlink:href="#path28"/></a><a id="a62" color="inherit" transform="translate(0 -1.33)" xlink:href="textedit://C:/Users/marry/Documents/Programming/web/HamoDirector/learning/triad/triad.ly:18:25:26"><use id="path60" transform="matrix(.004 0 0 -.004 65.83 7.68)" xlink:href="#path28"/></a><a id="a66" color="inherit" transform="translate(0 -1.33)" xlink:href="textedit://C:/Users/marry/Documents/Programming/web/HamoDirector/learning/triad/triad.ly:18:21:22"><use id="path64" transform="matrix(.004 0 0 -.004 55.93 6.18)" xlink:href="#path28"/></a><a id="a70" color="inherit" transform="translate(0 -1.33)" xlink:href="textedit://C:/Users/marry/Documents/Programming/web/HamoDirector/learning/triad/triad.ly:18:18:19"><use id="path68" transform="matrix(.004 0 0 -.004 55.93 7.18)" xlink:href="#path28"/></a><path id="path74" fill="currentColor" stroke-width="0" d="M6.09 5.3h.06c.62 0 1.02.51 1.02 1.04a1.02 1.02 0 01-.72.98l.02.43v.23c-.04.48-.36.9-.83.9a.78.78 0 01-.78-.78c0-.23.21-.41.45-.41.21 0 .38.19.38.41 0 .2-.18.38-.38.38a.35.35 0 01-.14-.03c.1.16.28.28.48.28.38 0 .63-.38.65-.78l.01-.2c0-.14 0-.26-.02-.4-.12.03-.23.04-.36.04-.75 0-1.33-.68-1.33-1.49 0-.71.53-1.22 1-1.76a4.57 4.57 0 01-.19-1.38c0-.46.22-.9.6-1.18l.03-.01.03.01c.28.34.53.99.53 1.44 0 .57-.35 1.02-.73 1.46.08.27.16.55.22.83zm.34 1.87c.28-.1.47-.38.47-.66a.78.78 0 00-.72-.78c.1.47.2.94.25 1.44zm-1.55-.94c0 .54.52 1 1.07 1 .1 0 .22 0 .32-.02-.06-.52-.15-1-.25-1.47-.32.03-.5.25-.5.48 0 .18.1.37.33.5l.02.05c0 .05-.03.09-.08.09l-.03-.01a.83.83 0 01-.47-.74c0-.35.23-.69.64-.78l-.19-.71c-.43.48-.86.97-.86 1.6zm1.36-4.08c-.4.2-.65.6-.65 1.05 0 .3.06.55.14.8.32-.4.6-.8.6-1.3 0-.23-.02-.34-.1-.55z"/><a id="a78" color="inherit" transform="translate(0 -1.33)" xlink:href="textedit://C:/Users/marry/Documents/Programming/web/HamoDirector/learning/triad/triad.ly:15:9:10"><use id="path76" transform="matrix(.004 0 0 -.004 9.6 7.68)" xlink:href="#path28"/></a><a id="a82" color="inherit" transform="translate(0 -1.33)" xlink:href="textedit://C:/Users/marry/Documents/Programming/web/HamoDirector/learning/triad/triad.ly:15:7:8"><use id="path80" transform="matrix(.004 0 0 -.004 9.6 8.68)" xlink:href="#path28"/></a><a id="a86" color="inherit" transform="translate(0 -1.33)" xlink:href="textedit://C:/Users/marry/Documents/Programming/web/HamoDirector/learning/triad/triad.ly:15:5:6"><use id="path84" transform="matrix(.004 0 0 -.004 9.6 9.68)" xlink:href="#path28"/></a><a id="a90" color="inherit" transform="translate(0 -1.33)" xlink:href="textedit://C:/Users/marry/Documents/Programming/web/HamoDirector/learning/triad/triad.ly:15:26:27"><use id="path88" transform="matrix(.004 0 0 -.004 29.39 5.68)" xlink:href="#path28"/></a><a id="a94" color="inherit" transform="translate(0 -1.33)" xlink:href="textedit://C:/Users/marry/Documents/Programming/web/HamoDirector/learning/triad/triad.ly:15:24:25"><use id="path92" transform="matrix(.004 0 0 -.004 29.39 6.68)" xlink:href="#path28"/></a><a id="a98" color="inherit" transform="translate(0 -1.33)" xlink:href="textedit://C:/Users/marry/Documents/Programming/web/HamoDirector/learning/triad/triad.ly:15:22:23"><use id="path96" transform="matrix(.004 0 0 -.004 29.39 7.68)" xlink:href="#path28"/></a><a id="a102" color="inherit" transform="translate(0 -1.33)" xlink:href="textedit://C:/Users/marry/Documents/Programming/web/HamoDirector/learning/triad/triad.ly:15:18:19"><use id="path100" transform="matrix(.004 0 0 -.004 19.5 6.18)" xlink:href="#path28"/></a><a id="a106" color="inherit" transform="translate(0 -1.33)" xlink:href="textedit://C:/Users/marry/Documents/Programming/web/HamoDirector/learning/triad/triad.ly:15:16:17"><use id="path104" transform="matrix(.004 0 0 -.004 19.5 7.18)" xlink:href="#path28"/></a><a id="a110" color="inherit" transform="translate(0 -1.33)" xlink:href="textedit://C:/Users/marry/Documents/Programming/web/HamoDirector/learning/triad/triad.ly:15:14:15"><use id="path108" transform="matrix(.004 0 0 -.004 19.5 8.18)" xlink:href="#path28"/></a><path id="line112" stroke="currentColor" stroke-linecap="round" stroke-linejoin="round" stroke-width=".08" d="M3.83 21.35h72"/><path id="line114" stroke="currentColor" stroke-linecap="round" stroke-linejoin="round" stroke-width=".08" d="M3.83 20.35h72"/><path id="line116" stroke="currentColor" stroke-linecap="round" stroke-linejoin="round" stroke-width=".08" d="M3.83 19.35h72"/><path id="line118" stroke="currentColor" stroke-linecap="round" stroke-linejoin="round" stroke-width=".08" d="M3.83 18.35h72"/><path id="line120" stroke="currentColor" stroke-linecap="round" stroke-linejoin="round" stroke-width=".08" d="M3.83 17.35h72"/><rect id="rect122" width="2.98" height=".18" x="45.83" y="22.26" fill="currentColor" ry=".09"/><rect id="rect124" width="2.98" height=".18" x="45.83" y="23.26" fill="currentColor" ry=".09"/><rect id="rect126" width="2.98" height=".18" x="9.1" y="22.26" fill="currentColor" ry=".09"/><rect id="rect128" width="2.98" height=".18" x="9.1" y="23.26" fill="currentColor" ry=".09"/><rect id="rect130" width=".15" height="4" x="75.73" y="17.35" fill="currentColor" ry="0"/><rect id="rect132" width=".15" height="4" x="39.38" y="17.35" fill="currentColor" ry="0"/><rect id="rect134" width=".15" height="4" x="38.99" y="17.35" fill="currentColor" ry="0"/><a id="a138" color="inherit" transform="translate(0 -1.33)" xlink:href="textedit://C:/Users/marry/Documents/Programming/web/HamoDirector/learning/triad/triad.ly:33:5:6"><use id="path136" transform="matrix(.004 0 0 -.004 46.33 24.68)" xlink:href="#path28"/></a><a id="a146" color="inherit" transform="translate(0 -1.33)" xlink:href="textedit://C:/Users/marry/Documents/Programming/web/HamoDirector/learning/triad/triad.ly:32:4:5"><use transform="matrix(.004 0 0 -.004 40.53 18.68)" xlink:href="#path140"/><use id="path142" transform="matrix(.004 0 0 -.004 41.63 20.18)" xlink:href="#path140"/><use id="path144" transform="matrix(.004 0 0 -.004 42.73 18.18)" xlink:href="#path140"/></a><a id="a150" color="inherit" transform="translate(0 -1.33)" xlink:href="textedit://C:/Users/marry/Documents/Programming/web/HamoDirector/learning/triad/triad.ly:33:12:13"><use id="path148" transform="matrix(.004 0 0 -.004 46.33 22.68)" xlink:href="#path28"/></a><a id="a154" color="inherit" transform="translate(0 -1.33)" xlink:href="textedit://C:/Users/marry/Documents/Programming/web/HamoDirector/learning/triad/triad.ly:33:8:9"><use id="path152" transform="matrix(.004 0 0 -.004 46.33 23.68)" xlink:href="#path28"/></a><a id="a158" color="inherit" transform="translate(0 -1.33)" xlink:href="textedit://C:/Users/marry/Documents/Programming/web/HamoDirector/learning/triad/triad.ly:33:33:34"><use id="path156" transform="matrix(.004 0 0 -.004 65.93 20.68)" xlink:href="#path28"/></a><a id="a162" color="inherit" transform="translate(0 -1.33)" xlink:href="textedit://C:/Users/marry/Documents/Programming/web/HamoDirector/learning/triad/triad.ly:33:17:18"><use id="path160" transform="matrix(.004 0 0 -.004 56.13 23.18)" xlink:href="#path28"/></a><a id="a166" color="inherit" transform="translate(0 -1.33)" xlink:href="textedit://C:/Users/marry/Documents/Programming/web/HamoDirector/learning/triad/triad.ly:33:29:30"><use id="path164" transform="matrix(.004 0 0 -.004 65.93 21.68)" xlink:href="#path28"/></a><a id="a170" color="inherit" transform="translate(0 -1.33)" xlink:href="textedit://C:/Users/marry/Documents/Programming/web/HamoDirector/learning/triad/triad.ly:33:27:28"><use id="path168" transform="matrix(.004 0 0 -.004 65.93 22.68)" xlink:href="#path28"/></a><a id="a174" color="inherit" transform="translate(0 -1.33)" xlink:href="textedit://C:/Users/marry/Documents/Programming/web/HamoDirector/learning/triad/triad.ly:33:23:24"><use id="path172" transform="matrix(.004 0 0 -.004 56.13 21.18)" xlink:href="#path28"/></a><a id="a178" color="inherit" transform="translate(0 -1.33)" xlink:href="textedit://C:/Users/marry/Documents/Programming/web/HamoDirector/learning/triad/triad.ly:33:19:20"><use id="path176" transform="matrix(.004 0 0 -.004 56.13 22.18)" xlink:href="#path28"/></a><path id="path182" fill="currentColor" stroke-width="0" d="M6.09 19.3h.06c.62 0 1.02.51 1.02 1.04a1.02 1.02 0 01-.72.98l.02.43v.23c-.04.48-.36.9-.83.9a.78.78 0 01-.78-.78c0-.23.21-.41.45-.41.21 0 .38.19.38.41 0 .2-.18.38-.38.38a.35.35 0 01-.14-.03c.1.16.28.28.48.28.38 0 .63-.38.65-.78l.01-.2c0-.14 0-.26-.02-.4-.12.03-.23.04-.36.04-.75 0-1.33-.68-1.33-1.49 0-.71.53-1.22 1-1.76a4.57 4.57 0 01-.19-1.38c0-.46.22-.9.6-1.18l.03-.01.03.01c.28.34.53.99.53 1.44 0 .57-.35 1.02-.73 1.46.08.27.16.55.22.83zm.34 1.87c.28-.1.47-.38.47-.66a.78.78 0 00-.72-.78c.1.47.2.94.25 1.44zm-1.55-.94c0 .54.52 1 1.07 1 .1 0 .22 0 .32-.02-.06-.52-.15-1-.25-1.47-.32.03-.5.25-.5.48 0 .18.1.37.33.5l.02.05c0 .05-.03.09-.08.09l-.03-.01a.83.83 0 01-.47-.74c0-.35.23-.69.64-.78l-.19-.71c-.43.48-.86.97-.86 1.6zm1.36-4.08c-.4.2-.65.6-.65 1.05 0 .3.06.55.14.8.32-.4.6-.8.6-1.3 0-.23-.02-.34-.1-.55z"/><a id="a186" color="inherit" transform="translate(0 -1.33)" xlink:href="textedit://C:/Users/marry/Documents/Programming/web/HamoDirector/learning/triad/triad.ly:30:9:10"><use id="path184" transform="matrix(.004 0 0 -.004 9.6 22.68)" xlink:href="#path28"/></a><a id="a190" color="inherit" transform="translate(0 -1.33)" xlink:href="textedit://C:/Users/marry/Documents/Programming/web/HamoDirector/learning/triad/triad.ly:30:7:8"><use id="path188" transform="matrix(.004 0 0 -.004 9.6 23.68)" xlink:href="#path28"/></a><a id="a194" color="inherit" transform="translate(0 -1.33)" xlink:href="textedit://C:/Users/marry/Documents/Programming/web/HamoDirector/learning/triad/triad.ly:30:5:6"><use id="path192" transform="matrix(.004 0 0 -.004 9.6 24.68)" xlink:href="#path28"/></a><a id="a198" color="inherit" transform="translate(0 -1.33)" xlink:href="textedit://C:/Users/marry/Documents/Programming/web/HamoDirector/learning/triad/triad.ly:30:26:27"><use id="path196" transform="matrix(.004 0 0 -.004 29.2 20.68)" xlink:href="#path28"/></a><a id="a202" color="inherit" transform="translate(0 -1.33)" xlink:href="textedit://C:/Users/marry/Documents/Programming/web/HamoDirector/learning/triad/triad.ly:30:24:25"><use id="path200" transform="matrix(.004 0 0 -.004 29.2 21.68)" xlink:href="#path28"/></a><a id="a206" color="inherit" transform="translate(0 -1.33)" xlink:href="textedit://C:/Users/marry/Documents/Programming/web/HamoDirector/learning/triad/triad.ly:30:22:23"><use id="path204" transform="matrix(.004 0 0 -.004 29.2 22.68)" xlink:href="#path28"/></a><a id="a210" color="inherit" transform="translate(0 -1.33)" xlink:href="textedit://C:/Users/marry/Documents/Programming/web/HamoDirector/learning/triad/triad.ly:30:18:19"><use id="path208" transform="matrix(.004 0 0 -.004 19.4 21.18)" xlink:href="#path28"/></a><a id="a214" color="inherit" transform="translate(0 -1.33)" xlink:href="textedit://C:/Users/marry/Documents/Programming/web/HamoDirector/learning/triad/triad.ly:30:16:17"><use id="path212" transform="matrix(.004 0 0 -.004 19.4 22.18)" xlink:href="#path28"/></a><a id="a218" color="inherit" transform="translate(0 -1.33)" xlink:href="textedit://C:/Users/marry/Documents/Programming/web/HamoDirector/learning/triad/triad.ly:30:14:15"><use id="path216" transform="matrix(.004 0 0 -.004 19.4 23.18)" xlink:href="#path28"/></a><text style="line-height:1.25;-inkscape-font-specification:'Century, Normal';font-variant-ligatures:normal;font-variant-caps:normal;font-variant-numeric:normal;font-feature-settings:normal;text-align:start" id="text1043" x="8.35" y="3.16" fill="#000" fill-opacity="1" stroke="none" stroke-width=".1" font-family="Century" font-size="2.68" font-stretch="normal" font-style="normal" font-variant="normal" font-weight="400" letter-spacing="0" text-anchor="start" word-spacing="0" writing-mode="lr-tb" xml:space="preserve"><tspan id="tspan1041" style="-inkscape-font-specification:'Century, Normal';font-variant-ligatures:normal;font-variant-caps:normal;font-variant-numeric:normal;font-feature-settings:normal;text-align:start;white-space:pre" x="8.35" y="3.16" stroke-width=".1" font-family="Century" font-size="2.68" font-stretch="normal" font-style="normal" font-variant="normal" font-weight="400" text-anchor="start" writing-mode="lr-tb">C dur</tspan></text><text style="line-height:1.25;-inkscape-font-specification:'Century, Normal';font-variant-ligatures:normal;font-variant-caps:normal;font-variant-numeric:normal;font-feature-settings:normal;text-align:start" id="text1047" x="45.09" y="3.18" fill="#000" fill-opacity="1" stroke="none" stroke-width=".1" font-family="Century" font-size="2.68" font-stretch="normal" font-style="normal" font-variant="normal" font-weight="400" letter-spacing="0" text-anchor="start" word-spacing="0" writing-mode="lr-tb" xml:space="preserve"><tspan id="tspan1045" style="-inkscape-font-specification:'Century, Normal';font-variant-ligatures:normal;font-variant-caps:normal;font-variant-numeric:normal;font-feature-settings:normal;text-align:start;white-space:pre" x="45.09" y="3.18" stroke-width=".1" font-family="Century" font-size="2.68" font-stretch="normal" font-style="normal" font-variant="normal" font-weight="400" text-anchor="start" writing-mode="lr-tb">c moll</tspan></text><text style="line-height:1.25;-inkscape-font-specification:'Century, Normal';font-variant-ligatures:normal;font-variant-caps:normal;font-variant-numeric:normal;font-feature-settings:normal;text-align:start" id="text1051" x="8.4" y="17.23" fill="#000" fill-opacity="1" stroke="none" stroke-width=".1" font-family="Century" font-size="2.68" font-stretch="normal" font-style="normal" font-variant="normal" font-weight="400" letter-spacing="0" text-anchor="start" word-spacing="0" writing-mode="lr-tb" xml:space="preserve"><tspan id="tspan1049" style="-inkscape-font-specification:'Century, Normal';font-variant-ligatures:normal;font-variant-caps:normal;font-variant-numeric:normal;font-feature-settings:normal;text-align:start;white-space:pre" x="8.4" y="17.23" stroke-width=".1" font-family="Century" font-size="2.68" font-stretch="normal" font-style="normal" font-variant="normal" font-weight="400" text-anchor="start" writing-mode="lr-tb">a moll</tspan></text><text style="line-height:1.25;-inkscape-font-specification:'Century, Normal';font-variant-ligatures:normal;font-variant-caps:normal;font-variant-numeric:normal;font-feature-settings:normal;text-align:start" id="text1055" x="45.19" y="17.25" fill="#000" fill-opacity="1" stroke="none" stroke-width=".1" font-family="Century" font-size="2.68" font-stretch="normal" font-style="normal" font-variant="normal" font-weight="400" letter-spacing="0" text-anchor="start" word-spacing="0" writing-mode="lr-tb" xml:space="preserve"><tspan id="tspan1053" style="-inkscape-font-specification:'Century, Normal';font-variant-ligatures:normal;font-variant-caps:normal;font-variant-numeric:normal;font-feature-settings:normal;text-align:start;white-space:pre" x="45.19" y="17.25" stroke-width=".1" font-family="Century" font-size="2.68" font-stretch="normal" font-style="normal" font-variant="normal" font-weight="400" text-anchor="start" writing-mode="lr-tb">A dur</tspan></text></svg>