<svg xmlns="http://www.w3.org/2000/svg" xmlns:xlink="http://www.w3.org/1999/xlink" version="1.2" width="718.12" height="250" viewBox="0 0 72.08 25.09" id="svg142"><style id="style2">tspan{white-space:pre}</style><text font-size="2.2" id="text6" x="7.81" y="3.81" font-family="serif" text-anchor="start" fill="currentColor"></text><path id="line8" stroke="currentColor" stroke-width=".08" stroke-linecap="round" stroke-linejoin="round" d="M.04 9.5h72"/><path id="line10" stroke="currentColor" stroke-width=".08" stroke-linecap="round" stroke-linejoin="round" d="M.04 8.5h72"/><path id="line12" stroke="currentColor" stroke-width=".08" stroke-linecap="round" stroke-linejoin="round" d="M.04 7.5h72"/><path id="line14" stroke="currentColor" stroke-width=".08" stroke-linecap="round" stroke-linejoin="round" d="M.04 6.5h72"/><path id="line16" stroke="currentColor" stroke-width=".08" stroke-linecap="round" stroke-linejoin="round" d="M.04 5.5h72"/><rect x="5.3" y="10.41" width="2.98" height=".18" ry=".09" id="rect18" fill="currentColor"/><a xlink:href="textedit://C:/Users/marry/Documents/Programming/web/HamoDirector/learning/%89%b9%8aK.ly:15:11:12" id="a22" transform="translate(-3.8 .82)" color="inherit"><path transform="matrix(.004 0 0 -.004 34.45 8.18)" d="M215 114c-50 0-71-42-71-88 0-79 60-140 139-140 50 0 70 42 70 88 0 79-59 140-138 140zM497 0c0-43-35-74-73-95-54-29-114-40-175-40S127-124 73-95C35-74 0-43 0 0s35 74 73 95c54 29 115 40 176 40s121-11 175-40c38-21 73-52 73-95z" id="path20" fill="currentColor"/></a><a xlink:href="textedit://C:/Users/marry/Documents/Programming/web/HamoDirector/learning/%89%b9%8aK.ly:15:15:16" id="a26" transform="translate(-3.8 .82)" color="inherit"><path transform="matrix(.004 0 0 -.004 51.02 7.18)" d="M215 114c-50 0-71-42-71-88 0-79 60-140 139-140 50 0 70 42 70 88 0 79-59 140-138 140zM497 0c0-43-35-74-73-95-54-29-114-40-175-40S127-124 73-95C35-74 0-43 0 0s35 74 73 95c54 29 115 40 176 40s121-11 175-40c38-21 73-52 73-95z" id="path24" fill="currentColor"/></a><a xlink:href="textedit://C:/Users/marry/Documents/Programming/web/HamoDirector/learning/%89%b9%8aK.ly:15:13:14" id="a30" transform="translate(-3.8 .82)" color="inherit"><path transform="matrix(.004 0 0 -.004 42.73 7.68)" d="M215 114c-50 0-71-42-71-88 0-79 60-140 139-140 50 0 70 42 70 88 0 79-59 140-138 140zM497 0c0-43-35-74-73-95-54-29-114-40-175-40S127-124 73-95C35-74 0-43 0 0s35 74 73 95c54 29 115 40 176 40s121-11 175-40c38-21 73-52 73-95z" id="path28" fill="currentColor"/></a><a xlink:href="textedit://C:/Users/marry/Documents/Programming/web/HamoDirector/learning/%89%b9%8aK.ly:15:17:18" id="a34" transform="translate(-3.8 .82)" color="inherit"><path transform="matrix(.004 0 0 -.004 59.3 6.68)" d="M215 114c-50 0-71-42-71-88 0-79 60-140 139-140 50 0 70 42 70 88 0 79-59 140-138 140zM497 0c0-43-35-74-73-95-54-29-114-40-175-40S127-124 73-95C35-74 0-43 0 0s35 74 73 95c54 29 115 40 176 40s121-11 175-40c38-21 73-52 73-95z" id="path32" fill="currentColor"/></a><a xlink:href="textedit://C:/Users/marry/Documents/Programming/web/HamoDirector/learning/%89%b9%8aK.ly:15:19:20" id="a38" transform="translate(-3.8 .82)" color="inherit"><path transform="matrix(.004 0 0 -.004 67.59 6.18)" d="M215 114c-50 0-71-42-71-88 0-79 60-140 139-140 50 0 70 42 70 88 0 79-59 140-138 140zM497 0c0-43-35-74-73-95-54-29-114-40-175-40S127-124 73-95C35-74 0-43 0 0s35 74 73 95c54 29 115 40 176 40s121-11 175-40c38-21 73-52 73-95z" id="path36" fill="currentColor"/></a><path d="M2.3 7.46h.06c.61 0 1.01.5 1.01 1.03a1.02 1.02 0 01-.72.98l.02.44v.22c-.03.48-.35.9-.83.9a.78.78 0 01-.78-.78c0-.23.22-.41.45-.41.22 0 .38.19.38.41 0 .21-.17.38-.38.38a.35.35 0 01-.14-.03c.1.16.28.28.49.28.38 0 .62-.37.65-.77v-.22l-.01-.38-.36.03C1.4 9.54.81 8.86.81 8.05c0-.7.53-1.22 1-1.76a4.57 4.57 0 01-.2-1.38c0-.46.23-.9.6-1.18h.07c.28.34.53.99.53 1.44 0 .58-.35 1.02-.73 1.46l.22.83zm.34 1.86c.27-.1.46-.38.46-.66a.78.78 0 00-.71-.77c.1.46.2.94.25 1.43zm-1.56-.94c0 .54.53 1 1.07 1 .11 0 .22 0 .33-.02-.06-.51-.15-1-.26-1.47-.31.04-.5.25-.5.48 0 .18.1.37.33.5l.03.06c0 .04-.04.08-.08.08h-.04a.83.83 0 01-.46-.74c0-.36.23-.7.63-.79-.05-.24-.12-.47-.18-.71-.43.48-.87.97-.87 1.6zM2.44 4.3c-.4.2-.64.6-.64 1.05 0 .3.06.55.13.8.33-.39.6-.8.6-1.3 0-.23-.02-.34-.09-.55z" id="path40" fill="currentColor" stroke-width="0"/><a xlink:href="textedit://C:/Users/marry/Documents/Programming/web/HamoDirector/learning/%89%b9%8aK.ly:15:4:5" id="a44" transform="translate(-3.8 .82)" color="inherit"><path transform="matrix(.004 0 0 -.004 9.6 9.68)" d="M215 114c-50 0-71-42-71-88 0-79 60-140 139-140 50 0 70 42 70 88 0 79-59 140-138 140zM497 0c0-43-35-74-73-95-54-29-114-40-175-40S127-124 73-95C35-74 0-43 0 0s35 74 73 95c54 29 115 40 176 40s121-11 175-40c38-21 73-52 73-95z" id="path42" fill="currentColor"/></a><a xlink:href="textedit://C:/Users/marry/Documents/Programming/web/HamoDirector/learning/%89%b9%8aK.ly:15:7:8" id="a48" transform="translate(-3.8 .82)" color="inherit"><path transform="matrix(.004 0 0 -.004 17.88 9.18)" d="M215 114c-50 0-71-42-71-88 0-79 60-140 139-140 50 0 70 42 70 88 0 79-59 140-138 140zM497 0c0-43-35-74-73-95-54-29-114-40-175-40S127-124 73-95C35-74 0-43 0 0s35 74 73 95c54 29 115 40 176 40s121-11 175-40c38-21 73-52 73-95z" id="path46" fill="currentColor"/></a><a xlink:href="textedit://C:/Users/marry/Documents/Programming/web/HamoDirector/learning/%89%b9%8aK.ly:15:9:10" id="a52" transform="translate(-3.8 .82)" color="inherit"><path transform="matrix(.004 0 0 -.004 26.16 8.68)" d="M215 114c-50 0-71-42-71-88 0-79 60-140 139-140 50 0 70 42 70 88 0 79-59 140-138 140zM497 0c0-43-35-74-73-95-54-29-114-40-175-40S127-124 73-95C35-74 0-43 0 0s35 74 73 95c54 29 115 40 176 40s121-11 175-40c38-21 73-52 73-95z" id="path50" fill="currentColor"/></a><path id="line54" stroke="currentColor" stroke-width=".08" stroke-linecap="round" stroke-linejoin="round" d="M.04 22.59h72"/><path id="line56" stroke="currentColor" stroke-width=".08" stroke-linecap="round" stroke-linejoin="round" d="M.04 21.59h72"/><path id="line58" stroke="currentColor" stroke-width=".08" stroke-linecap="round" stroke-linejoin="round" d="M.04 20.59h72"/><path id="line60" stroke="currentColor" stroke-width=".08" stroke-linecap="round" stroke-linejoin="round" d="M.04 19.59h72"/><path id="line62" stroke="currentColor" stroke-width=".08" stroke-linecap="round" stroke-linejoin="round" d="M.04 18.59h72"/><rect x="10.64" y="23.5" width="2.66" height=".18" ry=".09" id="rect64" fill="currentColor"/><rect x="5.3" y="23.5" width="2.98" height=".18" ry=".09" id="rect66" fill="currentColor"/><a xlink:href="textedit://C:/Users/marry/Documents/Programming/web/HamoDirector/learning/%89%b9%8aK.ly:17:31:32" id="a70" transform="translate(-3.8 1.92)" color="inherit"><path transform="matrix(.004 0 0 -.004 55.8 19.18)" d="M215 114c-50 0-71-42-71-88 0-79 60-140 139-140 50 0 70 42 70 88 0 79-59 140-138 140zM497 0c0-43-35-74-73-95-54-29-114-40-175-40S127-124 73-95C35-74 0-43 0 0s35 74 73 95c54 29 115 40 176 40s121-11 175-40c38-21 73-52 73-95z" id="path68" fill="currentColor"/></a><a xlink:href="textedit://C:/Users/marry/Documents/Programming/web/HamoDirector/learning/%89%b9%8aK.ly:17:33:34" id="a74" transform="translate(-3.8 1.92)" color="inherit"><path transform="matrix(.004 0 0 -.004 60.82 18.68)" d="M215 114c-50 0-71-42-71-88 0-79 60-140 139-140 50 0 70 42 70 88 0 79-59 140-138 140zM497 0c0-43-35-74-73-95-54-29-114-40-175-40S127-124 73-95C35-74 0-43 0 0s35 74 73 95c54 29 115 40 176 40s121-11 175-40c38-21 73-52 73-95z" id="path72" fill="currentColor"/></a><path d="M46.4 22.86c0 .03-.03.07-.07.07a.07.07 0 01-.07-.07v-.6l-.35.12v.65c0 .03-.03.06-.06.06a.07.07 0 01-.07-.06v-.6l-.16.05c-.04.01-.08-.02-.08-.06v-.26c0-.03.02-.05.04-.06l.2-.07v-.66l-.16.06c-.04.02-.08-.02-.08-.06v-.26c0-.03.02-.05.04-.06l.2-.07v-.65c0-.04.03-.07.07-.07.03 0 .06.03.06.07v.6l.35-.12v-.65c0-.03.03-.07.07-.07.04 0 .07.04.07.07v.6l.15-.05c.04-.02.09.02.09.06v.26c0 .02-.02.05-.05.06l-.2.07v.65l.16-.05c.04-.02.09.01.09.06v.26c0 .03-.02.05-.05.06l-.2.07zm-.49-1.53v.65l.35-.12v-.65z" id="path76" fill="currentColor" stroke-width="0"/><a xlink:href="textedit://C:/Users/marry/Documents/Programming/web/HamoDirector/learning/%89%b9%8aK.ly:17:27:28" id="a80" transform="translate(-3.8 1.92)" color="inherit"><path transform="matrix(.004 0 0 -.004 50.78 19.68)" d="M215 114c-50 0-71-42-71-88 0-79 60-140 139-140 50 0 70 42 70 88 0 79-59 140-138 140zM497 0c0-43-35-74-73-95-54-29-114-40-175-40S127-124 73-95C35-74 0-43 0 0s35 74 73 95c54 29 115 40 176 40s121-11 175-40c38-21 73-52 73-95z" id="path78" fill="currentColor"/></a><a xlink:href="textedit://C:/Users/marry/Documents/Programming/web/HamoDirector/learning/%89%b9%8aK.ly:17:21:22" id="a84" transform="translate(-3.8 1.92)" color="inherit"><path transform="matrix(.004 0 0 -.004 39.7 20.18)" d="M215 114c-50 0-71-42-71-88 0-79 60-140 139-140 50 0 70 42 70 88 0 79-59 140-138 140zM497 0c0-43-35-74-73-95-54-29-114-40-175-40S127-124 73-95C35-74 0-43 0 0s35 74 73 95c54 29 115 40 176 40s121-11 175-40c38-21 73-52 73-95z" id="path82" fill="currentColor"/></a><a xlink:href="textedit://C:/Users/marry/Documents/Programming/web/HamoDirector/learning/%89%b9%8aK.ly:17:4:5" id="a88" transform="translate(-3.8 1.92)" color="inherit"><path transform="matrix(.004 0 0 -.004 9.6 21.68)" d="M215 114c-50 0-71-42-71-88 0-79 60-140 139-140 50 0 70 42 70 88 0 79-59 140-138 140zM497 0c0-43-35-74-73-95-54-29-114-40-175-40S127-124 73-95C35-74 0-43 0 0s35 74 73 95c54 29 115 40 176 40s121-11 175-40c38-21 73-52 73-95z" id="path86" fill="currentColor"/></a><a xlink:href="textedit://C:/Users/marry/Documents/Programming/web/HamoDirector/learning/%89%b9%8aK.ly:17:7:8" id="a92" transform="translate(-3.8 1.92)" color="inherit"><path transform="matrix(.004 0 0 -.004 14.61 21.68)" d="M215 114c-50 0-71-42-71-88 0-79 60-140 139-140 50 0 70 42 70 88 0 79-59 140-138 140zM497 0c0-43-35-74-73-95-54-29-114-40-175-40S127-124 73-95C35-74 0-43 0 0s35 74 73 95c54 29 115 40 176 40s121-11 175-40c38-21 73-52 73-95z" id="path90" fill="currentColor"/></a><a xlink:href="textedit://C:/Users/marry/Documents/Programming/web/HamoDirector/learning/%89%b9%8aK.ly:17:39:40" id="a96" transform="translate(-3.8 1.92)" color="inherit"><path transform="matrix(.004 0 0 -.004 70.86 18.18)" d="M215 114c-50 0-71-42-71-88 0-79 60-140 139-140 50 0 70 42 70 88 0 79-59 140-138 140zM497 0c0-43-35-74-73-95-54-29-114-40-175-40S127-124 73-95C35-74 0-43 0 0s35 74 73 95c54 29 115 40 176 40s121-11 175-40c38-21 73-52 73-95z" id="path94" fill="currentColor"/></a><path d="M60.98 19.1a.2.2 0 01.1-.03c.02 0 .06 0 .08.02v.71l.43-.07h.01c.04 0 .07.03.07.06l.03 2.3a.2.2 0 01-.2 0l.02-.7-.44.07a.07.07 0 01-.08-.07zm.55 1.04l-.38.06-.01.85.38-.06z" id="path98" fill="currentColor" stroke-width="0"/><a xlink:href="textedit://C:/Users/marry/Documents/Programming/web/HamoDirector/learning/%89%b9%8aK.ly:17:37:38" id="a102" transform="translate(-3.8 1.92)" color="inherit"><path transform="matrix(.004 0 0 -.004 65.84 18.68)" d="M215 114c-50 0-71-42-71-88 0-79 60-140 139-140 50 0 70 42 70 88 0 79-59 140-138 140zM497 0c0-43-35-74-73-95-54-29-114-40-175-40S127-124 73-95C35-74 0-43 0 0s35 74 73 95c54 29 115 40 176 40s121-11 175-40c38-21 73-52 73-95z" id="path100" fill="currentColor"/></a><path d="M55.98 20.42v.27l-.01.05.01.26c.19-.15.39-.32.39-.55 0-.14-.06-.28-.18-.28s-.21.12-.21.25zm-.16.72l-.04-2.4a.22.22 0 01.1-.03l.1.03-.03 1.4a.6.6 0 01.35-.12c.22 0 .38.18.38.4 0 .33-.36.47-.62.67-.05.05-.08.13-.16.13a.08.08 0 01-.08-.08z" id="path104" fill="currentColor" stroke-width="0"/><path d="M20.27 24.36c0 .03-.04.07-.07.07a.07.07 0 01-.07-.07v-.6l-.35.12v.65c0 .03-.03.06-.07.06a.07.07 0 01-.06-.06v-.6l-.16.05c-.04.01-.08-.02-.08-.06v-.26c0-.03.02-.05.04-.06l.2-.07v-.66l-.16.06c-.04.02-.08-.02-.08-.06v-.26c0-.03.02-.05.04-.06l.2-.07v-.65c0-.04.03-.07.06-.07.04 0 .07.03.07.07v.6l.35-.12v-.65c0-.03.03-.07.07-.07.03 0 .07.04.07.07v.6l.15-.05c.04-.02.09.02.09.06v.26c0 .02-.02.05-.05.06l-.2.07v.65l.16-.05c.04-.02.09.01.09.06v.26c0 .03-.02.05-.05.06l-.2.07zm-.49-1.53v.65l.35-.12v-.65z" id="path106" fill="currentColor" stroke-width="0"/><a xlink:href="textedit://C:/Users/marry/Documents/Programming/web/HamoDirector/learning/%89%b9%8aK.ly:17:13:14" id="a110" transform="translate(-3.8 1.92)" color="inherit"><path transform="matrix(.004 0 0 -.004 24.65 21.18)" d="M215 114c-50 0-71-42-71-88 0-79 60-140 139-140 50 0 70 42 70 88 0 79-59 140-138 140zM497 0c0-43-35-74-73-95-54-29-114-40-175-40S127-124 73-95C35-74 0-43 0 0s35 74 73 95c54 29 115 40 176 40s121-11 175-40c38-21 73-52 73-95z" id="path108" fill="currentColor"/></a><a xlink:href="textedit://C:/Users/marry/Documents/Programming/web/HamoDirector/learning/%89%b9%8aK.ly:17:11:12" id="a114" transform="translate(-3.8 1.92)" color="inherit"><path transform="matrix(.004 0 0 -.004 19.63 21.18)" d="M215 114c-50 0-71-42-71-88 0-79 60-140 139-140 50 0 70 42 70 88 0 79-59 140-138 140zM497 0c0-43-35-74-73-95-54-29-114-40-175-40S127-124 73-95C35-74 0-43 0 0s35 74 73 95c54 29 115 40 176 40s121-11 175-40c38-21 73-52 73-95z" id="path112" fill="currentColor"/></a><path d="M2.3 20.55h.06c.61 0 1.01.5 1.01 1.04a1.02 1.02 0 01-.72.98l.02.43v.22c-.03.48-.35.9-.83.9a.78.78 0 01-.78-.77c0-.24.22-.42.45-.42.22 0 .38.2.38.42 0 .2-.17.38-.38.38a.35.35 0 01-.14-.04c.1.16.28.28.49.28.38 0 .62-.37.65-.77v-.21l-.01-.39-.36.03c-.75 0-1.33-.68-1.33-1.48 0-.72.53-1.23 1-1.76a4.57 4.57 0 01-.2-1.38c0-.47.23-.9.6-1.18l.04-.02a2.63 2.63 0 01.56 1.45c0 .58-.35 1.03-.73 1.46l.22.83zm.34 1.86c.27-.1.46-.38.46-.66a.78.78 0 00-.71-.77c.1.47.2.94.25 1.43zm-1.56-.94c0 .54.53 1 1.07 1 .11 0 .22 0 .33-.02-.06-.51-.15-.99-.26-1.47-.31.04-.5.25-.5.49 0 .17.1.36.33.5.02 0 .03.03.03.05 0 .04-.04.08-.08.08h-.04a.83.83 0 01-.46-.74c0-.35.23-.7.63-.79-.05-.24-.12-.47-.18-.7-.43.48-.87.96-.87 1.6zm1.36-4.08c-.4.2-.64.6-.64 1.05 0 .3.06.55.13.8.33-.39.6-.79.6-1.3 0-.23-.02-.33-.09-.55z" id="path116" fill="currentColor" stroke-width="0"/><a xlink:href="textedit://C:/Users/marry/Documents/Programming/web/HamoDirector/learning/%89%b9%8aK.ly:17:25:26" id="a120" transform="translate(-3.8 1.92)" color="inherit"><path transform="matrix(.004 0 0 -.004 44.72 19.68)" d="M215 114c-50 0-71-42-71-88 0-79 60-140 139-140 50 0 70 42 70 88 0 79-59 140-138 140zM497 0c0-43-35-74-73-95-54-29-114-40-175-40S127-124 73-95C35-74 0-43 0 0s35 74 73 95c54 29 115 40 176 40s121-11 175-40c38-21 73-52 73-95z" id="path118" fill="currentColor"/></a><path d="M35.32 23.36c0 .03-.03.07-.07.07a.07.07 0 01-.06-.07v-.6l-.35.12v.65c0 .03-.03.06-.07.06a.07.07 0 01-.07-.06v-.6l-.15.05c-.04.01-.09-.02-.09-.06v-.26c0-.03.02-.05.05-.06l.2-.07v-.66l-.16.06c-.04.02-.09-.02-.09-.06v-.26c0-.03.02-.05.05-.06l.2-.07v-.65c0-.04.02-.07.06-.07.04 0 .07.03.07.07v.6l.35-.12v-.65c0-.03.03-.07.06-.07.04 0 .07.04.07.07v.6l.16-.05c.04-.02.08.02.08.06v.26c0 .02-.02.05-.04.06l-.2.07v.65l.16-.05c.04-.02.08.01.08.06v.26c0 .03-.02.05-.04.06l-.2.07zm-.48-1.53v.65l.35-.12v-.65z" id="path122" fill="currentColor" stroke-width="0"/><path d="M10.23 24.86c0 .03-.03.07-.07.07a.07.07 0 01-.07-.07v-.6l-.34.12v.65c0 .03-.04.06-.07.06a.07.07 0 01-.07-.06v-.6l-.16.05c-.04.01-.08-.02-.08-.06v-.26c0-.03.02-.05.04-.06l.2-.07v-.66l-.16.06c-.04.02-.08-.02-.08-.06v-.26c0-.03.02-.05.04-.06l.2-.07v-.65c0-.04.03-.07.07-.07.03 0 .07.03.07.07v.6l.34-.12v-.65c0-.03.04-.07.07-.07.04 0 .07.04.07.07v.6l.16-.05c.04-.02.08.02.08.06v.26c0 .02-.02.05-.04.06l-.2.07v.65l.16-.05c.04-.02.08.01.08.06v.26c0 .03-.02.05-.04.06l-.2.07zm-.48-1.53v.65l.34-.12v-.65z" id="path124" fill="currentColor" stroke-width="0"/><a xlink:href="textedit://C:/Users/marry/Documents/Programming/web/HamoDirector/learning/%89%b9%8aK.ly:17:19:20" id="a128" transform="translate(-3.8 1.92)" color="inherit"><path transform="matrix(.004 0 0 -.004 34.69 20.18)" d="M215 114c-50 0-71-42-71-88 0-79 60-140 139-140 50 0 70 42 70 88 0 79-59 140-138 140zM497 0c0-43-35-74-73-95-54-29-114-40-175-40S127-124 73-95C35-74 0-43 0 0s35 74 73 95c54 29 115 40 176 40s121-11 175-40c38-21 73-52 73-95z" id="path126" fill="currentColor"/></a><a xlink:href="textedit://C:/Users/marry/Documents/Programming/web/HamoDirector/learning/%89%b9%8aK.ly:17:17:18" id="a132" transform="translate(-3.8 1.92)" color="inherit"><path transform="matrix(.004 0 0 -.004 29.67 20.68)" d="M215 114c-50 0-71-42-71-88 0-79 60-140 139-140 50 0 70 42 70 88 0 79-59 140-138 140zM497 0c0-43-35-74-73-95-54-29-114-40-175-40S127-124 73-95C35-74 0-43 0 0s35 74 73 95c54 29 115 40 176 40s121-11 175-40c38-21 73-52 73-95z" id="path130" fill="currentColor"/></a><text xml:space="preserve" style="line-height:1.25;-inkscape-font-specification:'HGPKyokashotai, Normal';font-variant-ligatures:normal;font-variant-caps:normal;font-variant-numeric:normal;font-feature-settings:normal;text-align:start" x="-.28" y="3.15" id="text957" font-style="normal" font-variant="normal" font-weight="400" font-stretch="normal" font-size="4.01" font-family="HGPKyokashotai" letter-spacing="0" word-spacing="0" writing-mode="lr-tb" text-anchor="start" fill="#000" fill-opacity="1" stroke="none" stroke-width=".1"><tspan id="tspan955" style="-inkscape-font-specification:'HGPKyokashotai, Normal';font-variant-ligatures:normal;font-variant-caps:normal;font-variant-numeric:normal;font-feature-settings:normal;text-align:start;white-space:pre" x="-.28" y="3.15" font-style="normal" font-variant="normal" font-weight="400" font-stretch="normal" font-size="4.01" font-family="HGPKyokashotai" writing-mode="lr-tb" text-anchor="start" stroke-width=".1">長音階</tspan></text><text xml:space="preserve" style="line-height:1.25;-inkscape-font-specification:'HGPKyokashotai, Normal';font-variant-ligatures:normal;font-variant-caps:normal;font-variant-numeric:normal;font-feature-settings:normal;text-align:start" x="-.41" y="15.64" id="text961" font-style="normal" font-variant="normal" font-weight="400" font-stretch="normal" font-size="4.01" font-family="HGPKyokashotai" letter-spacing="0" word-spacing="0" writing-mode="lr-tb" text-anchor="start" fill="#000" fill-opacity="1" stroke="none" stroke-width=".1"><tspan id="tspan959" style="-inkscape-font-specification:'HGPKyokashotai, Normal';font-variant-ligatures:normal;font-variant-caps:normal;font-variant-numeric:normal;font-feature-settings:normal;text-align:start;white-space:pre" x="-.41" y="15.64" font-style="normal" font-variant="normal" font-weight="400" font-stretch="normal" font-size="4.01" font-family="HGPKyokashotai" writing-mode="lr-tb" text-anchor="start" stroke-width=".1">半音階</tspan></text></svg>