<svg width="1000" height="200" xmlns="http://www.w3.org/2000/svg" xmlns:xlink="http://www.w3.org/1999/xlink"><path fill="none" d="M0 0h1000v200H0z"/><defs><path id="d" stroke-width=".2" stroke="currentColor" d="M-1-1h2v2h-2z"/><path id="b" stroke-width=".2" stroke="currentColor" d="M0-1.3l-1.3 2h2.6z"/><path id="f" stroke-width=".2" stroke="currentColor" d="M0 1.3L1.3.4.8-1H-.8L-1.3.4z"/><use xlink:href="#b" id="c" stroke="currentColor" transform="rotate(180)"/><use xlink:href="#d" id="e" stroke="currentColor" transform="rotate(45)"/><circle id="a" stroke-width=".2" stroke="currentColor" cx="0" cy="0" r="1"/></defs><path stroke="#00F" d="M84.6 100.7l.8-1 .9-1.1.8-1.1.8-1.1.8-1 .9-1.1.8-1.1.8-1 .8-1.1.9-1.1.8-1 .8-1.1.9-1.1.8-1 .8-1.1.8-1 .9-1.1.8-1 .8-1.1.8-1 .9-1.1.8-1 .8-1 .9-1 .8-1.1.8-1 .8-1 .9-1 .8-1 .8-1 .8-1 .9-1 .8-1 .8-.9.9-1 .8-1 .8-.9.8-1 .9-.9.8-1 .8-.9.8-.9.9-.9.8-.9.8-.9.9-.9.8-.9.8-.9.8-.9.9-.8.8-.9.8-.8.8-.8.9-.9.8-.8.8-.8.9-.8.8-.8.8-.8.8-.7.9-.8.8-.7.8-.8.8-.7.9-.7.8-.7.8-.7.9-.7.8-.7.8-.6.8-.7.9-.6.8-.7.8-.6.8-.6.9-.6.8-.6.8-.6.9-.5.8-.6.8-.5.8-.5.9-.5.8-.5.8-.5.9-.5.8-.5.8-.4.8-.5.9-.4.8-.4.8-.4.8-.4.9-.4.8-.3.8-.4.9-.3.8-.3.8-.3.8-.3.9-.3.8-.3.8-.2.8-.3.9-.2.8-.2.8-.2.9-.2.8-.1.8-.2.8-.1.9-.2.8-.1.8-.1.8-.1h.9l.8-.1h.8l.9-.1H186.4l.8.1h.8l.8.1.9.1.8.1.8.1.9.1.8.1.8.2.8.2.9.1.8.2.8.2.8.2.9.3.8.2.8.3.9.3.8.3.8.3.8.3.9.3.8.3.8.4.8.4.9.3.8.4.8.4.9.5.8.4.8.4.8.5.9.5.8.4.8.5.8.5.9.6.8.5.8.5.9.6.8.6.8.6.8.5.9.6.8.7.8.6.8.6.9.7.8.6.8.7.9.7.8.7.8.7.8.7.9.7.8.8.8.7.8.8.9.7.8.8.8.8.9.8.8.8.8.8.8.8.9.8.8.9.8.8.8.9.9.9.8.8.8.9.9.9.8.9.8.9.8.9.9.9.8 1 .8.9.8.9.9 1 .8.9.8 1 .9 1 .8.9.8 1 .8 1 .9 1 .8 1 .8 1 .8 1 .9 1 .8 1 .8 1 .9 1 .8 1.1.8 1 .8 1 .9 1.1.8 1 .8 1.1.8 1 .9 1.1.8 1 .8 1.1.9 1.1.8 1 .8 1.1.8 1 .9 1.1.8 1.1.8 1.1.8 1 .9 1.1.8 1.1.8 1 .9 1.1.8 1.1.8 1.1.8 1 .9 1.1.8 1.1.8 1.1.8 1 .9 1.1.8 1.1.8 1.1.9 1 .8 1.1.8 1.1.8 1 .9 1.1.8 1 .8 1.1.9 1 .8 1.1.8 1 .8 1.1.9 1 .8 1.1.8 1 .8 1 .9 1 .8 1.1.8 1 .9 1 .8 1 .8 1 .8 1 .9 1 .8 1 .8.9.8 1 .9 1 .8.9.8 1 .9.9.8 1 .8.9.8.9.9.9.8.9.8 1 .8.8.9.9.8.9.8.9.9.9.8.8.8.9.8.8.9.8.8.8.8.9.8.8.9.7.8.8.8.8.9.8.8.7.8.8.8.7.9.7.8.7.8.7.8.7.9.7.8.7.8.6.9.7.8.6.8.6.8.7.9.6.8.5.8.6.8.6.9.5.8.6.8.5.9.5.8.5.8.5.8.5.9.5.8.4.8.5.8.4.9.4.8.4.8.4.9.4.8.4.8.3.8.4.9.3.8.3.8.3.8.3.9.3.8.2.8.3.9.2.8.2.8.2.8.2.9.2.8.1.8.2.8.1.9.1.8.1.8.1.9.1.8.1h.8l.8.1h3.3l.9-.1h.8l.8-.1h.9l.8-.1.8-.1.8-.2.9-.1.8-.1.8-.2.8-.2.9-.1.8-.2.8-.3.9-.2.8-.2.8-.3.8-.2.9-.3.8-.3.8-.3.8-.4.9-.3.8-.3.8-.4.9-.4.8-.4.8-.4.8-.4.9-.4.8-.4.8-.5.8-.5.9-.4.8-.5.8-.5.9-.6.8-.5.8-.5.8-.6.9-.5.8-.6.8-.6.8-.6.9-.6.8-.6.8-.7.9-.6.8-.7.8-.6.8-.7.9-.7.8-.7.8-.7.9-.7.8-.7.8-.8.8-.7.9-.8.8-.8.8-.8.8-.7.9-.8.8-.8.8-.9.9-.8.8-.8.8-.9.8-.8.9-.9.8-.9.8-.8.8-.9.9-.9.8-.9.8-.9.9-.9.8-1 .8-.9.8-.9.9-1 .8-.9.8-1 .8-1 .9-.9.8-1 .8-1 .9-1 .8-1 .8-1 .8-1 .9-1 .8-1 .8-1 .8-1 .9-1 .8-1.1.8-1 .9-1 .8-1.1.8-1 .8-1.1.9-1 .8-1.1.8-1 .8-1.1.9-1.1.8-1 .8-1.1.9-1.1.8-1 .8-1.1.8-1.1.9-1 .8-1.1.8-1.1.8-1.1.9-1 .8-1.1.8-1.1.9-1.1.8-1 .8-1.1.8-1.1.9-1.1.8-1 .8-1.1.8-1.1.9-1 .8-1.1.8-1.1.9-1 .8-1.1.8-1.1.8-1 .9-1.1.8-1 .8-1 .8-1.1.9-1 .8-1.1.8-1 .9-1 .8-1 .8-1 .8-1.1.9-1 .8-1 .8-1 .8-1 .9-.9.8-1 .8-1 .9-1 .8-.9.8-1 .8-.9.9-1 .8-.9.8-.9.8-1 .9-.9.8-.9.8-.9.9-.9.8-.8.8-.9.8-.9.9-.8.8-.9.8-.8.8-.9.9-.8.8-.8.8-.8.9-.8.8-.8.8-.8.8-.7.9-.8.8-.8.8-.7.8-.7.9-.7.8-.7.8-.7.9-.7.8-.7.8-.7.8-.6.9-.6.8-.7.8-.6.8-.6.9-.6.8-.6.8-.6.9-.5.8-.6.8-.5.8-.5.9-.5.8-.5.8-.5.8-.5.9-.4.8-.5.8-.4.9-.5.8-.4.8-.4.8-.3.9-.4.8-.4.8-.3.8-.4.9-.3.8-.3.8-.3.9-.2.8-.3.8-.3.8-.2.9-.2.8-.2.8-.2.9-.2.8-.2.8-.1.8-.2.9-.1.8-.1.8-.1.8-.1.9-.1h.8l.8-.1h4.2l.8.1h.8l.8.1.9.1.8.1.8.1.9.1.8.2.8.1.8.2.9.2.8.2.8.2.8.2.9.2.8.3.8.2.9.3.8.3.8.3.8.3.9.3.8.4.8.3.8.4.9.4.8.4.8.4.9.4.8.5.8.4.8.5.9.4.8.5.8.5.8.5.9.6.8.5.8.5.9.6.8.6.8.5.8.6.9.6.8.7.8.6.8.6.9.7.8.6.8.7.9.7.8.7.8.7.8.7.9.7.8.8.8.7.8.8.9.7.8.8.8.8.9.8.8.8.8.8.8.8.9.9.8.8.8.9.8.8.9.9.8.9.8.8.9.9.8.9.8.9.8 1 .9.9.8.9.8.9.8 1 .9.9.8 1 .8.9.9 1 .8 1 .8 1 .8 1 .9.9.8 1 .8 1 .8 1 .9 1.1.8 1 .8 1 .9 1 .8 1 .8 1.1.8 1 .9 1.1.8 1 .8 1 .8 1.1.9 1 .8 1.1.8 1.1.9 1 .8 1.1.8 1 .8 1.1.9 1.1.8 1.1.8 1 .8 1.1.9 1.1.8 1 .8 1.1.9 1.1.8 1.1.8 1 .8 1.1.9 1.1.8 1.1.8 1 .8 1.1.9 1.1.8 1.1.8 1 .9 1.1.8 1.1.8 1 .8 1.1.9 1.1.8 1 .8 1.1.8 1 .9 1.1.8 1 .8 1.1.9 1 .8 1 .8 1.1.8 1 .9 1 .8 1 .8 1 .9 1 .8 1 .8 1 .8 1 .9 1 .8 1 .8 1 .8 1 .9.9.8 1 .8.9.9 1 .8.9.8.9.8 1 .9.9.8.9.8.9.8.9.9.9.8.9.8.8.9.9.8.8.8.9.8.8.9.9.8.8.8.8.8.8.9.8.8.8.8.7.9.8.8.7.8.8.8.7.9.7.8.7.8.7.8.7.9.7.8.7.8.6.9.7.8.6.8.6.8.6.9.6.8.6.8.6.8.6.9.5.8.6.8.5.9.5.8.5.8.5.8.5.9.5.8.4.8.5.8.4.9.4.8.4.8.4.9.4.8.3.8.4.8.3.9.3.8.3.8.3.8.3.9.3.8.3.8.2.9.2.8.2.8.2.8.2.9.2.8.2.8.1.8.1.9.2.8.1.8.1h.9l.8.1h.8l.8.1h3.3l.9-.1h.8l.8-.1.9-.1h.8l.8-.2.8-.1.9-.1.8-.2.8-.1.8-.2.9-.2.8-.2.8-.2.9-.2.8-.3.8-.2.8-.3.9-.3.8-.3.8-.3.8-.3.9-.3.8-.4.8-.4.9-.3.8-.4.8-.4.8-.4.9-.5.8-.4.8-.5.8-.4.9-.5.8-.5.8-.5.9-.5.8-.6.8-.5.8-.6.9-.5.8-.6.8-.6.8-.6.9-.6.8-.6.8-.7.9-.6.8-.7.8-.6.8-.7.9-.7.8-.7.8-.7.8-.7.9-.8.8-.7.8-.8.9-.7.8-.8.8-.8.8-.8.9-.8.8-.8.8-.8.8-.8.9-.9.8-.8.8-.9.9-.8.8-.9.8-.9.8-.9.9-.9.8-.9.8-.9.9-.9.8-.9.8-.9.8-1 .9-.9.8-1 .8-.9.8-1 .9-1 .8-1 .8-.9.9-1 .8-1 .8-1 .8-1 .9-1 .8-1 .8-1.1.8-1 .9-1 .8-1 .8-1.1.9-1 .8-1.1.8-1 .8-1.1.9-1 .8-1.1.8-1 .8-1.1.9-1 .8-1.1.8-1.1.9-1 .8-1.1.8-1.1.8-1 .9-1.1.8-1.1.8-1.1.8-1 .9-1.1.8-1.1.8-1.1.9-1 .8-1.1.8-1.1.8-1.1.9-1 .8-1.1.8-1.1.8-1.1.9-1 .8-1.1.8-1 .9-1.1.8-1.1.8-1 .8-1.1.9-1 .8-1.1.8-1 .8-1.1.9-1 .8-1 .8-1.1.9-1 .8-1 .8-1 .8-1 .9-1 .8-1 .8-1 .8-1 .9-1 .8-1" fill="none" color="#000" stroke-width="3"/></svg>