<svg width="1000" height="200" xmlns="http://www.w3.org/2000/svg" xmlns:xlink="http://www.w3.org/1999/xlink"><path fill="none" d="M0 0h1000v200H0z"/><defs><path id="d" stroke-width=".2" stroke="currentColor" d="M-1-1h2v2h-2z"/><path id="b" stroke-width=".2" stroke="currentColor" d="M0-1.3l-1.3 2h2.6z"/><path id="f" stroke-width=".2" stroke="currentColor" d="M0 1.3L1.3.4.8-1H-.8L-1.3.4z"/><use xlink:href="#b" id="c" stroke="currentColor" transform="rotate(180)"/><use xlink:href="#d" id="e" stroke="currentColor" transform="rotate(45)"/><circle id="a" stroke-width=".2" stroke="currentColor" cx="0" cy="0" r="1"/></defs><path stroke="#00F" d="M84.6 100.7l.8 43.5.9 30.5.8 8.7.8-15.8.8-35.6.9-44.8.8-40.8.8-24.7.8-1.3.9 22.5.8 39.5.8 45 .9 37 .8 18.1.8-6.1.8-28.4.9-42.4.8-43.8.8-32.2.8-11.1.9 13.2.8 33.7.8 44 .9 41.3.8 26.5.8 3.9.8-20 .9-37.7.8-44.4.8-37.8.8-20.1.9 3.4.8 26 .8 40.8.9 43.4.8 33.3.8 13.2.8-10.5.9-31.2.8-42.5.8-41.3.8-27.8.9-6.2.8 17.1.8 35.4.9 43.1.8 38 .8 21.8.8-1 .9-23.2.8-38.5.8-42.4.8-33.7.9-15.1.8 7.8.8 28.4.9 40.4.8 40.5.8 28.6.8 8.3.9-14.3.8-32.6.8-41.1.8-37.6.9-22.8.8-1.4.8 20.2.9 35.7.8 40.7.8 33.6.8 16.5.9-5.2.8-25.2.8-37.8.8-39.1.9-28.7.8-10.1.8 11.4.9 29.4.8 38.7.8 36.3.8 23.4.9 3.6.8-17.1.8-32.6.9-38.3.8-32.7.8-17.6.8 2.8.9 22 .8 34.6.8 36.9.8 28.3.9 11.5.8-8.7.8-26 .9-35.5.8-34.6.8-23.3.8-5.3.9 14 .8 29 .8 35.4.8 31.2.9 17.9.8-.5.8-18.6.9-31.1.8-34.2.8-27.2.8-12.3.9 6.1.8 22.4.8 32 .8 32 .9 22.7.8 6.7.8-11 .9-25.3.8-32 .8-29 .8-17.7.9-1.3.8 15.3.8 27.1.8 30.9.9 25.5.8 12.6.8-3.8.9-18.7.8-28.1.8-29 .8-21.3.9-7.5.8 8.2.8 21.4.8 28 .9 26.3.8 16.9.8 2.7.9-12.1.8-23.1.8-27.1.8-23 .9-12.4.8 1.8.8 15.2.8 23.9.9 25.4.8 19.3.8 7.9.9-5.8.8-17.5.8-23.7.8-23 .9-15.5.8-3.5.8 9.1.8 18.9.9 22.9.8 20 .8 11.5.9-.3.8-11.8.8-19.5.8-21.3.9-16.8.8-7.6.8 3.8.8 13.6.9 19.2.8 19.2.8 13.4.9 3.9.8-6.5.8-14.7.8-18.3.9-16.6.8-10 .8-.6.8 8.5.9 15.1.8 16.8.8 13.8.9 6.6.8-2 .8-10 .8-14.6.9-14.9.8-10.8.8-3.7.8 4.2.9 10.6.8 13.7.8 12.6.9 7.9.8 1.1.8-5.7.8-10.6.9-12.2.8-10.1.8-5.2.8.9.9 6.6.8 10 .8 10.3.9 7.6.8 2.9.8-2.5.8-6.7.9-8.9.8-8.2.8-5.3.8-.9.9 3.3.8 6.3.8 7.3.9 6.1.8 3.2.8-.4.8-3.6.9-5.4.8-5.5.8-4 .8-1.4.9 1.1.8 3.3.8 4 .9 3.6.8 2.1.8.2.8-1.3.9-2.4.8-2.3.8-1.7.8-.6.9.4.8 1 .8 1 .9.5h.8l.8-.5.8-.5h.9l.8.6.8 1.3.8 1.5.9 1h.8l.8-1.4.9-2.5.8-2.9.8-2.5.8-1 .9 1.1.8 3.1.8 4.4.9 4.4.8 2.9.8.4.8-2.7.9-5.1.8-6.2.8-5.4.8-2.8.9.8.8 4.6.8 7.2.9 7.8.8 5.9.8 2.1.8-2.6.9-6.8.8-9.2.8-9 .8-5.8.9-.8.8 4.8.8 9.2.9 11.1.8 9.6.8 5.2.8-1.2.9-7.3.8-11.6.8-12.6.8-9.7.9-3.8.8 3.5.8 10.1.9 13.9.8 13.6.8 9.2.8 1.8.9-6.4.8-13 .8-15.8.8-14 .9-7.9.8.8.8 9.5.9 15.7.8 17.3.8 13.8.8 6 .9-3.9.8-12.9.8-18.2.8-18.3.9-12.7.8-3.4.8 7.4.9 16.2.8 20.4.8 18.4.8 11 .9.1.8-11.2.8-19.3.8-21.9.9-17.9.8-8.5.8 3.7.9 15 .8 22.2.8 22.7.8 16.6.9 5.3.8-7.8.8-18.9.8-24.4.9-22.9.8-14.4.8-1.5.9 12.2.8 22.4.8 26.2.8 22.1.9 11.5.8-2.9.8-16.7.8-25.6.9-27.1.8-20.5.8-7.6.9 7.6.8 20.9.8 28.2.8 27.2.9 17.9.8 3.3.8-12.5.8-25 .9-30.1.8-26.2.8-14.6.9 1.6.8 17.6.8 28.5.8 31.1.9 24.4.8 10.4.8-6.9.8-22.4.9-31.4.8-31.2.8-21.6.9-5.5.8 12.4.8 26.9.8 33.4.9 30.2.8 17.9.8.1.8-17.9.9-30.7.8-34.7.8-28.2.9-13.4.8 5.7.8 23.2.8 34 .9 34.8.8 25.3.8 8 .8-11.7.9-28.1.8-36.3.8-33.9.9-21.2.8-2.3.8 17.7.8 32.4.9 37.7.8 31.8.8 16.5.8-4 .9-23.4.8-36 .8-38 .9-28.7.8-10.8.8 10.4.8 28.7.9 38.6.8 37.1.8 24.6.8 4.6.9-16.8.8-33.4.8-40.2.9-35.1.8-19.5.8 2 .8 22.9.9 37.3.8 40.7.8 31.9.9 13.7.8-8.7.8-28.7.8-40.2.9-39.9.8-27.7.8-7.3.8 15.5.9 33.7.8 42.1.8 37.9.9 22.6.8.4.8-22 .8-38 .9-42.7.8-34.8.8-16.6.8 6.7.9 28 .8 41.2.8 42.1.9 30.6.8 10 .8-13.7.8-33.4.9-43.3.8-40.3.8-25.4.8-2.9.9 20.5.8 37.9.8 44.2.9 37.2.8 19.4.8-4.4.8-26.8.9-41.4.8-43.7.8-33.2.8-12.6.9 11.6.8 32.4.8 43.8.9 42.1.8 27.9.8 5.6.8-18.6.9-37.3.8-44.8.8-39.3.8-21.9.9 1.8.8 25.2.8 40.9.9 44.7.8 35.2.8 15.3.8-9.2.9-31 .8-43.5.8-43.3.8-30.1.9-8.2.8 16.4.8 35.9.9 44.9.8 40.6.8 24.2.8.8.9-23 .8-39.9.8-45 .8-36.7.9-17.7.8 6.7.8 28.9.9 42.7.8 43.8.8 31.9.8 10.6.9-13.8.8-34.1.8-44.3.8-41.3.9-26.1.8-3.3.8 20.5.9 38.2.8 44.5.8 37.7.8 19.8.9-4.1.8-26.5.8-41.2.8-43.6.9-33 .8-12.9.8 11.2.9 31.7.8 42.9.8 41.4.8 27.6.9 5.7.8-17.8.8-36 .8-43.4.9-38 .8-21.5.8 1.5.9 23.8.8 39.1.8 42.7.8 33.7.9 14.7.8-8.4.8-29 .8-41 .9-40.7.8-28.5.8-7.9.9 15 .8 33.2.8 41.7.8 37.7.9 22.6.8 1 .8-20.9.8-36.4.9-41.1.8-33.7.8-16.3.9 5.7.8 26 .8 38.4.8 39.5.9 28.8.8 9.7.8-12 .8-30.2.9-39.2.8-36.7.8-23.3.9-3.2.8 17.8.8 33.3.8 38.9.9 33 .8 17.4.8-3.3.8-22.7.9-35.4.8-37.4.8-28.5.9-11.2.8 9.2.8 26.8.8 36.3.9 35 .8 23.4.8 5 .8-14.7.9-29.8.8-36.1.8-31.7.9-17.9.8 1 .8 19.4.8 31.9.9 34.9.8 27.5.8 12.1.9-6.6.8-23.2.8-32.8.8-32.7.9-22.8.8-6.5.8 11.7.8 26.1.9 32.8.8 29.6.8 17.8.9.9.8-16 .8-28.1.8-31.6.9-25.9.8-12.6.8 4.2.8 19.6.9 29 .8 29.7.8 21.7.9 7.4.8-8.9.8-22.2.8-29 .9-27 .8-17.1.8-2.4.8 12.8.9 24 .8 28 .8 23.6.9 12.5.8-2.2.8-16 .8-24.8.9-26.3.8-19.8.8-7.9.8 6.3.9 18.4.8 24.7.8 23.8.9 15.9.8 3.4.8-9.8.8-19.8.9-23.9.8-20.8.8-11.7.8.6.9 12.5.8 20.5.8 22.2.9 17.5.8 7.7.8-4.2.8-14.4.9-20.3.8-20.1.8-13.9.8-3.9.9 7 .8 15.7.8 19.4.9 17.4.8 10.4.8.4.8-9.2.9-16 .8-17.9.8-14.5.8-7 .9 2.4.8 10.8.8 15.7.9 15.9.8 11.4.8 3.8.8-4.7.9-11.5.8-14.7.8-13.6.8-8.4.9-1 .8 6.3.8 11.6.9 13.2.8 11 .8 5.6.8-1.2.9-7.3.8-11 .8-11.4.8-8.3.9-3.2.8 2.9.8 7.6.9 9.9.8 9.2.8 5.9.8 1.1.9-3.8.8-7.3.8-8.4.8-7 .9-3.7.8.4.8 4.2.9 6.5.8 6.6.8 4.8.8 1.9.9-1.5.8-3.9.8-5.2.8-4.6.9-2.9.8-.5.8 1.8.9 3.2.8 3.5.8 2.7.8 1.2.9-.3.8-1.5.8-2 .8-1.7.9-.9h.8l.8.6.9.7.8.4.8-.2.8-.6.9-.7.8-.2.8.5.8 1.4.9 1.9.8 1.8.8.8.9-.7.8-2.2.8-3.3.8-3.3.9-2.4.8-.3.8 2 .8 4.2.9 5 .8 4.5.8 2.4.9-.7.8-3.9.8-6.1.8-6.7.9-5.1.8-1.8.8 2.3.9 6 .8 8.1.8 7.9.8 5.2.9.7.8-4.4.8-8.3.8-10 .9-8.7.8-4.6.8 1.1.9 6.8.8 10.7.8 11.5.8 8.8.9 3.4.8-3.4.8-9.4.8-12.9.9-12.5.8-8.4.8-1.5.9 6.1.8 12.1.8 14.8.8 13 .9 7.3.8-1 .8-9.1.8-14.8.9-16.2.8-12.9.8-5.4.9 3.9.8 12.2.8 17.3.8 17.2.9 12 .8 2.9.8-7.2.8-15.5.9-19.4.8-17.4.8-10.3.9.1.8 10.9.8 18.5.8 20.9.9 17 .8 7.9.8-3.7.8-14.6.9-21.3.8-21.8.8-15.7.9-4.9.8 7.8.8 18.3.8 23.6.9 21.9.8 13.6.8 1.1.8-12 .9-21.8.8-25.2.8-21.2.9-10.7.8 3.1.8 16.3.8 24.8.9 26.2.8 19.6.8 7.1.8-7.7.9-20.5.8-27.4.8-26.2.9-17.2.8-2.8.8 12.5.8 24.5.9 29.2.8 25.3.8 13.9.8-1.9.9-17.4.8-27.9.8-30.2.9-23.6.8-9.8.8 7.1.8 22.1.9 30.8.8 30.2.8 20.8.8 5 .9-12.4.8-26.5.8-32.8.9-29.3.8-17.2.8.3.8 17.9.9 30.3.8 33.9.8 27.4.8 12.7.9-6 .8-23.1.8-33.4.9-34 .8-24.5.8-7.5.8 11.9.9 27.9.8 35.7.8 33.1.8 20.5.9 1.7.8-17.7.8-32.1.9-37.1.8-31 .8-15.7.8 4.4.9 23.4.8 35.5.8 37.4.8 27.9.9 10.2.8-10.7.8-28.6.9-38.2.8-36.4.8-23.9.8-4.1.9 17.1.8 33.2.8 39.7.8 34.4.9 18.8.8-2.4.8-23.1.9-37.1.8-40.1.8-31.2.8-13 .9 9.1.8 28.7.8 39.9.8 39.3.9 27.1.8 6.6.8-15.8.9-33.7.8-41.7.8-37.3.8-21.9.9.1.8 22.3.8 37.8.8 42.3.9 34.3.8 15.9.8-7.2.9-28.2.8-41 .8-41.7.8-29.9.9-9.4.8 14.1.8 33.5.9 43.1.8 39.8.8 24.8.8 2.3.9-20.8.8-38 .8-43.9.8-36.7.9-18.8.8 4.9.8 27.1.9 41.4.8 43.5.8 32.6.8 12 .9-12 .8-32.8.8-43.7.8-41.7.9-27.4.8-5 .8 19.1.9 37.4.8 44.8.8 38.8.8 21.4.9-2.4.8-25.5.8-41.2.8-44.5.9-34.8.8-14.7.8 9.7.9 31.4.8 43.6.8 43.1.8 29.7.9 7.6.8-16.9.8-36.3.8-44.9.9-40.3.8-23.8.8-.2.9 23.5.8 40.2.8 44.9.8 36.5.9 17.2.8-7.3.8-29.4.8-42.9.9-43.7.8-31.6.8-10.1.9 14.4.8 34.6.8 44.4.8 41.2.9 25.8.8 2.7.8-21.1.8-38.6.9-44.7.8-37.5.8-19.3.9 4.6.8 27.1.8 41.5.8 43.7.9 32.9.8 12.4.8-11.8.8-32.3.9-43.2.8-41.5" fill="none" color="#000" stroke-width="3"/></svg>