<?xml version="1.0" encoding="UTF-8" standalone="no"?>
<svg
   xmlns:dc="http://purl.org/dc/elements/1.1/"
   xmlns:cc="http://creativecommons.org/ns#"
   xmlns:rdf="http://www.w3.org/1999/02/22-rdf-syntax-ns#"
   xmlns:svg="http://www.w3.org/2000/svg"
   xmlns="http://www.w3.org/2000/svg"
   xmlns:xlink="http://www.w3.org/1999/xlink"
   id="svg16"
   version="1.1"
   height="200"
   width="1000">
  <metadata
     id="metadata20">
    <rdf:RDF>
      <cc:Work
         rdf:about="">
        <dc:format>image/svg+xml</dc:format>
        <dc:type
           rdf:resource="http://purl.org/dc/dcmitype/StillImage" />
        <dc:title></dc:title>
      </cc:Work>
    </rdf:RDF>
  </metadata>
  <path
     id="path2"
     d="M0 0h1000v200H0z"
     fill="none" />
  <defs
     id="defs10">
    <path
       d="M-1-1h2v2h-2z"
       stroke="currentColor"
       stroke-width=".222"
       id="d" />
    <path
       d="M0-1.33l-1.33 2h2.66z"
       stroke="currentColor"
       stroke-width=".222"
       id="b" />
    <path
       d="M0 1.33L1.265.411.782-1.067l-1.564-.009-.483 1.487z"
       stroke="currentColor"
       stroke-width=".222"
       id="f" />
    <use
       transform="rotate(180)"
       stroke="currentColor"
       id="c"
       xlink:href="#b" />
    <use
       transform="rotate(45)"
       stroke="currentColor"
       id="e"
       xlink:href="#d" />
    <circle
       r="1"
       cy="0"
       cx="0"
       stroke="currentColor"
       stroke-width=".222"
       id="a" />
  </defs>
  <path
     id="path12"
     stroke-width="3"
     color="#000"
     fill="none"
     d="M84.6 100.8l.8 43.2.9 30.5.8 8.6.8-15.7.8-35.5.9-44.6.8-40.7.8-24.6.8-1.3.9 22.4.8 39.4.8 44.8.9 36.9.8 18 .8-6 .8-28.4.9-42.2.8-43.7.8-32 .8-11.1.9 13.2.8 33.5.8 43.9.9 41.2.8 26.4.8 3.8.8-19.9.9-37.6.8-44.2.8-37.7.8-20 .9 3.4.8 25.9.8 40.6.9 43.3.8 33.1.8 13.3.8-10.5.9-31.1.8-42.4.8-41.1.8-27.8.9-6.1.8 17.1.8 35.3.9 42.9.8 37.9.8 21.6.8-.9.9-23.1.8-38.4.8-42.2.8-33.6.9-15.1.8 7.8.8 28.3.9 40.3.8 40.3.8 28.5.8 8.3.9-14.3.8-32.5.8-41 .8-37.3.9-22.8.8-1.4.8 20.1.9 35.6.8 40.5.8 33.5.8 16.5.9-5.2.8-25.2.8-37.6.8-38.9.9-28.7.8-10 .8 11.4.9 29.3.8 38.5.8 36.2.8 23.3.9 3.5.8-17 .8-32.4.9-38.2.8-32.6.8-17.5.8 2.7.9 22 .8 34.4.8 36.8.8 28.2.9 11.4.8-8.6.8-25.9.9-35.4.8-34.4.8-23.2.8-5.4.9 14 .8 28.9.8 35.3.8 31.1.9 17.8.8-.5.8-18.6.9-30.9.8-34.1.8-27.1.8-12.2.9 6 .8 22.4.8 31.8.8 32 .9 22.5.8 6.7.8-11 .9-25.2.8-31.8.8-29 .8-17.6.9-1.3.8 15.3.8 27 .8 30.8.9 25.3.8 12.6.8-3.7.9-18.7.8-28 .8-28.9.8-21.2.9-7.5.8 8.2.8 21.3.8 27.9.9 26.2.8 16.9.8 2.6.9-12 .8-23 .8-27 .8-23 .9-12.3.8 1.8.8 15.2.8 23.7.9 25.3.8 19.3.8 7.8.9-5.7.8-17.4.8-23.7.8-22.9.9-15.4.8-3.6.8 9.1.8 18.9.9 22.8.8 20 .8 11.4.9-.3.8-11.8.8-19.4.8-21.2.9-16.8.8-7.5.8 3.7.8 13.6.9 19.2.8 19.1.8 13.3.9 3.9.8-6.4.8-14.7.8-18.3.9-16.5.8-9.9.8-.7.8 8.6.9 14.9.8 16.8.8 13.7.9 6.7.8-2.1.8-9.9.8-14.6.9-14.9.8-10.7.8-3.7.8 4.2.9 10.6.8 13.6.8 12.6.9 7.8.8 1.1.8-5.7.8-10.5.9-12.2.8-10 .8-5.2.8.9.9 6.6.8 9.9.8 10.3.9 7.6.8 2.8.8-2.4.8-6.7.9-8.8.8-8.2.8-5.3.8-1 .9 3.4.8 6.3.8 7.2.9 6.1.8 3.2.8-.4.8-3.6.9-5.4.8-5.4.8-4 .8-1.5.9 1.2.8 3.2.8 4 .9 3.6.8 2.1.8.2.8-1.3.9-2.4.8-2.3.8-1.7.8-.6.9.4.8 1 .8 1 .9.6.8-.1.8-.5.8-.4.9-.1.8.6.8 1.3.8 1.5.9 1h.8l.8-1.4.9-2.5.8-2.9.8-2.5.8-.9.9 1 .8 3.1.8 4.4.9 4.4.8 2.9.8.4.8-2.7.9-5.1.8-6.1.8-5.4.8-2.8.9.8.8 4.6.8 7.2.9 7.7.8 5.9.8 2.1.8-2.6.9-6.8.8-9.2.8-8.9.8-5.8.9-.8.8 4.7.8 9.2.9 11.1.8 9.6.8 5.1.8-1.1.9-7.3.8-11.6.8-12.5.8-9.7.9-3.8.8 3.5.8 10.1.9 13.8.8 13.6.8 9.1.8 1.8.9-6.4.8-12.9.8-15.8.8-13.9.9-7.9.8.8.8 9.5.9 15.7.8 17.2.8 13.7.8 6 .9-3.9.8-12.8.8-18.2.8-18.2.9-12.7.8-3.3.8 7.4.9 16.1.8 20.2.8 18.5.8 10.9.9.1.8-11.1.8-19.3.8-21.8.9-17.9.8-8.4.8 3.6.9 15 .8 22.1.8 22.7.8 16.5.9 5.3.8-7.8.8-18.8.8-24.4.9-22.8.8-14.3.8-1.5.9 12.1.8 22.4.8 26.1.8 22 .9 11.4.8-2.9.8-16.5.8-25.6.9-26.9.8-20.5.8-7.6.9 7.6.8 20.8.8 28.1.8 27.1.9 17.9.8 3.3.8-12.6.8-24.8.9-30 .8-26.2.8-14.5.9 1.6.8 17.5.8 28.4.8 31 .9 24.3.8 10.4.8-6.9.8-22.3.9-31.3.8-31 .8-21.6.9-5.5.8 12.4.8 26.8.8 33.3.9 30.1.8 17.8.8.1.8-17.8.9-30.7.8-34.5.8-28.1.9-13.3.8 5.7.8 23.1.8 33.9.9 34.6.8 25.2.8 8 .8-11.6.9-28 .8-36.3.8-33.7.9-21.2.8-2.2.8 17.6.8 32.3.9 37.6.8 31.7.8 16.3.8-4 .9-23.3.8-35.8.8-37.9.9-28.6.8-10.7.8 10.4.8 28.6.9 38.4.8 37 .8 24.5.8 4.6.9-16.8.8-33.2.8-40.1.9-34.9.8-19.5.8 2 .8 22.8.9 37.2.8 40.5.8 31.8.9 13.6.8-8.7.8-28.5.8-40.1.9-39.8.8-27.6.8-7.2.8 15.4.9 33.7.8 41.9.8 37.8.9 22.4.8.4.8-21.9.8-37.8.9-42.6.8-34.7.8-16.5.8 6.7.9 27.9.8 41 .8 42 .9 30.5.8 9.9.8-13.7.8-33.2.9-43.1.8-40.2.8-25.3.8-2.9.9 20.5.8 37.7.8 44 .9 37.1.8 19.3.8-4.3.8-26.8.9-41.2.8-43.6.8-33 .8-12.6.9 11.6.8 32.3.8 43.6.9 41.9.8 27.9.8 5.5.8-18.5.9-37.1.8-44.7.8-39.1.8-21.9.9 1.9.8 25 .8 40.8.9 44.5.8 35.1.8 15.2.8-9.2.9-30.8.8-43.4.8-43.1.8-30 .9-8.1.8 16.2.8 35.8.9 44.8.8 40.4.8 24.2.8.7.9-22.9.8-39.7.8-44.9.8-36.6.9-17.5.8 6.6.8 28.8.9 42.6.8 43.6.8 31.7.8 10.6.9-13.8.8-33.9.8-44.1.8-41.2.9-26 .8-3.3.8 20.4.9 38.1.8 44.4.8 37.5.8 19.7.9-4 .8-26.5.8-41 .8-43.4.9-33 .8-12.8.8 11.1.9 31.7.8 42.7.8 41.3.8 27.5.9 5.6.8-17.7.8-35.8.8-43.3.9-37.9.8-21.3.8 1.4.9 23.8.8 38.9.8 42.5.8 33.6.9 14.7.8-8.4.8-28.9.8-40.8.9-40.6.8-28.4.8-7.9.9 14.9.8 33.2.8 41.5.8 37.5.9 22.6.8.9.8-20.8.8-36.2.9-41 .8-33.6.8-16.2.9 5.7.8 25.9.8 38.3.8 39.3.9 28.7.8 9.7.8-12 .8-30.1.9-39.1.8-36.5.8-23.3.9-3.1.8 17.7.8 33.2.8 38.8.9 32.8.8 17.3.8-3.2.8-22.6.9-35.3.8-37.3.8-28.4.9-11.1.8 9.2.8 26.7.8 36.1.9 34.9.8 23.3.8 5 .8-14.7.9-29.7.8-36 .8-31.5.9-17.8.8 1 .8 19.3.8 31.8.9 34.7.8 27.4.8 12.1.9-6.5.8-23.2.8-32.7.8-32.5.9-22.8.8-6.4.8 11.6.8 26 .9 32.7.8 29.5.8 17.7.9.9.8-15.9.8-28 .8-31.5.9-25.9.8-12.5.8 4.2.8 19.5.9 28.9.8 29.6.8 21.6.9 7.4.8-8.8.8-22.2.8-28.8.9-26.9.8-17.1.8-2.4.8 12.7.9 24 .8 27.8.8 23.6.9 12.4.8-2.2.8-15.9.8-24.7.9-26.2.8-19.8.8-7.8.8 6.3.9 18.3.8 24.6.8 23.7.9 15.8.8 3.4.8-9.7.8-19.8.9-23.7.8-20.8.8-11.6.8.6.9 12.4.8 20.4.8 22.2.9 17.4.8 7.7.8-4.2.8-14.4.9-20.2.8-20 .8-13.9.8-3.8.9 7 .8 15.5.8 19.4.9 17.3.8 10.4.8.4.8-9.2.9-15.9.8-17.9.8-14.4.8-6.9.9 2.4.8 10.7.8 15.6.9 15.9.8 11.3.8 3.8.8-4.7.9-11.4.8-14.7.8-13.5.8-8.4.9-1 .8 6.3.8 11.5.9 13.2.8 11 .8 5.5.8-1.1.9-7.3.8-11 .8-11.3.8-8.4.9-3.1.8 2.8.8 7.6.9 9.9.8 9.2.8 5.9.8 1 .9-3.8.8-7.2.8-8.4.8-7 .9-3.7.8.5.8 4.2.9 6.4.8 6.6.8 4.8.8 1.8.9-1.4.8-3.9.8-5.1.8-4.7.9-2.8.8-.5.8 1.8.9 3.2.8 3.4.8 2.7.8 1.2.9-.3.8-1.5.8-2 .8-1.7.9-.9h.8l.8.6.9.7.8.4.8-.1.8-.6.9-.7.8-.3.8.6.8 1.4.9 1.9.8 1.7.8.8.9-.7.8-2.2.8-3.2.8-3.4.9-2.3.8-.4.8 2.1.8 4.1.9 5.1.8 4.4.8 2.4.9-.7.8-3.9.8-6.1.8-6.7.9-5 .8-1.9.8 2.3.9 6 .8 8.2.8 7.8.8 5.2.9.6.8-4.3.8-8.3.8-10 .9-8.6.8-4.6.8 1.1.9 6.8.8 10.6.8 11.4.8 8.9.9 3.3.8-3.3.8-9.4.8-12.8.9-12.5.8-8.4.8-1.5.9 6.1.8 12.1.8 14.7.8 12.9.9 7.3.8-.9.8-9.1.8-14.8.9-16.2.8-12.8.8-5.4.9 3.9.8 12.2.8 17.2.8 17.2.9 11.9.8 2.9.8-7.2.8-15.4.9-19.3.8-17.4.8-10.3.9.2.8 10.8.8 18.5.8 20.8.9 16.9.8 7.9.8-3.8.8-14.5.9-21.2.8-21.7.8-15.7.9-4.8.8 7.8.8 18.2.8 23.5.9 21.8.8 13.6.8 1.1.8-12 .9-21.7.8-25.1.8-21.1.9-10.7.8 3.1.8 16.2.8 24.8.9 26 .8 19.6.8 7.1.8-7.7.9-20.4.8-27.3.8-26.1.9-17.1.8-2.9.8 12.5.8 24.3.9 29.2.8 25.2.8 13.8.8-1.9.9-17.3.8-27.8.8-30.1.9-23.5.8-9.7.8 7.1.8 22 .9 30.6.8 30.1.8 20.8.8 5 .9-12.5.8-26.4.8-32.6.9-29.2.8-17.1.8.3.8 17.8.9 30.2.8 33.7.8 27.3.8 12.7.9-6 .8-23 .8-33.3.9-33.9.8-24.3.8-7.5.8 11.8.9 27.8.8 35.6.8 33 .8 20.4.9 1.7.8-17.6.8-32 .9-37 .8-30.9.8-15.7.8 4.4.9 23.3.8 35.5.8 37.2.8 27.8.9 10.2.8-10.7.8-28.5.9-38.1.8-36.2.8-23.8.8-4.1.9 17 .8 33.1.8 39.6.8 34.2.9 18.8.8-2.4.8-23 .9-37 .8-39.9.8-31.1.8-13 .9 9.1.8 28.6.8 39.7.8 39.2.9 27 .8 6.6.8-15.8.9-33.5.8-41.6.8-37.2.8-21.8.9.1.8 22.2.8 37.7.8 42.2.9 34 .8 15.9.8-7.1.9-28.1.8-40.9.8-41.5.8-29.9.9-9.3.8 14.1.8 33.4.9 42.9.8 39.6.8 24.7.8 2.4.9-20.8.8-37.8.8-43.7.8-36.7.9-18.7.8 4.9.8 27 .9 41.3.8 43.2.8 32.5.8 12.1.9-12.1.8-32.6.8-43.5.8-41.6.9-27.3.8-5 .8 19 .9 37.3.8 44.6.8 38.7.8 21.3.9-2.4.8-25.4.8-41 .8-44.4.9-34.6.8-14.7.8 9.7.9 31.3.8 43.5.8 42.9.8 29.6.9 7.5.8-16.8.8-36.1.8-44.8.9-40.2.8-23.7.8-.2.9 23.4.8 40.1.8 44.8.8 36.3.9 17.1.8-7.2.8-29.3.8-42.8.9-43.6.8-31.4.8-10 .9 14.3.8 34.4.8 44.3.8 41.1.9 25.6.8 2.8.8-21 .8-38.5.9-44.6.8-37.4.8-19.2.9 4.6.8 27 .8 41.4.8 43.5.9 32.8.8 12.3.8-11.7.8-32.2.9-43.1.8-41.3"
     stroke="#00F" />
  <path
     id="path14"
     stroke-width="3"
     color="#000"
     fill="none"
     d="M84.6 18.1h4.1l.9.1H92l.9.1h.8l.8.1H96.2l.8.1h.8l.9.1.8.1h.8l.8.1.9.1h.8l.8.1.9.1.8.1.8.1.8.1.9.1.8.1.8.1.8.1.9.1.8.1.8.1.9.1.8.2.8.1.8.1.9.1.8.2.8.1.8.2.9.1.8.2.8.1.9.2.8.1.8.2.8.2.9.1.8.2.8.2.8.2.9.1.8.2.8.2.9.2.8.2.8.2.8.2.9.2.8.2.8.2.8.3.9.2.8.2.8.2.9.3.8.2.8.2.8.3.9.2.8.2.8.3.8.2.9.3.8.3.8.2.9.3.8.2.8.3.8.3.9.3.8.2.8.3.9.3.8.3.8.3.8.3.9.3.8.3.8.3.8.3.9.3.8.3.8.3.9.3.8.3.8.4.8.3.9.3.8.3.8.4.8.3.9.3.8.4.8.3.9.4.8.3.8.4.8.3.9.4.8.4.8.3.8.4.9.3.8.4.8.4.9.4.8.3.8.4.8.4.9.4.8.4.8.4.8.4.9.3.8.4.8.4.9.4.8.4.8.5.8.4.9.4.8.4.8.4.8.4.9.4.8.5.8.4.9.4.8.4.8.5.8.4.9.4.8.5.8.4.8.4.9.5.8.4.8.5.9.4.8.5.8.4.8.5.9.4.8.5.8.5.8.4.9.5.8.5.8.4.9.5.8.5.8.4.8.5.9.5.8.5.8.4.8.5.9.5.8.5.8.5.9.4.8.5.8.5.8.5.9.5.8.5.8.5.8.5.9.5.8.5.8.5.9.5.8.5.8.5.8.5.9.5.8.5.8.5.8.5.9.5.8.6.8.5.9.5.8.5.8.5.8.5.9.5.8.6.8.5.8.5.9.5.8.5.8.6.9.5.8.5.8.5.8.6.9.5.8.5.8.6.8.5.9.5.8.5.8.6.9.5.8.5.8.6.8.5.9.5.8.6.8.5.8.5.9.6.8.5.8.5.9.6.8.5.8.6.8.5.9.5.8.6.8.5.8.5.9.6.8.5.8.5.9.6.8.5.8.6.8.5.9.5.8.6.8.5.8.6.9.5.8.5.8.6.9.5.8.5.8.6.8.5.9.5.8.6.8.5.9.5.8.6.8.5.8.6.9.5.8.5.8.5.8.6.9.5.8.5.8.6.9.5.8.5.8.6.8.5.9.5.8.5.8.6.8.5.9.5.8.5.8.6.9.5.8.5.8.5.8.5.9.6.8.5.8.5.8.5.9.5.8.5.8.5.9.6.8.5.8.5.8.5.9.5.8.5.8.5.8.5.9.5.8.5.8.5.9.5.8.5.8.5.8.5.9.5.8.5.8.4.8.5.9.5.8.5.8.5.9.5.8.4.8.5.8.5.9.5.8.4.8.5.8.5.9.5.8.4.8.5.9.5.8.4.8.5.8.4.9.5.8.4.8.5.8.4.9.5.8.4.8.5.9.4.8.5.8.4.8.4.9.5.8.4.8.4.8.5.9.4.8.4.8.4.9.4.8.5.8.4.8.4.9.4.8.4.8.4.8.4.9.4.8.4.8.4.9.4.8.4.8.4.8.4.9.4.8.3.8.4.8.4.9.4.8.3.8.4.9.4.8.3.8.4.8.4.9.3.8.4.8.3.8.4.9.3.8.4.8.3.9.3.8.4.8.3.8.3.9.4.8.3.8.3.8.3.9.3.8.4.8.3.9.3.8.3.8.3.8.3.9.3.8.3.8.3.8.2.9.3.8.3.8.3.9.3.8.2.8.3.8.3.9.2.8.3.8.2.8.3.9.2.8.3.8.2.9.3.8.2.8.2.8.3.9.2.8.2.8.3.9.2.8.2.8.2.8.2.9.2.8.2.8.2.8.2.9.2.8.2.8.2.9.2.8.1.8.2.8.2.9.2.8.1.8.2.8.2.9.1.8.2.8.1.9.2.8.1.8.1.8.2.9.1.8.1.8.2.8.1.9.1.8.1.8.1.9.1.8.1.8.1.8.1.9.1.8.1.8.1.8.1.9.1.8.1h.8l.9.1.8.1h.8l.8.1.9.1h.8l.8.1h.8l.9.1h1.6l.9.1H479.2l.9.1H488.3l.9-.1H491.6l.9-.1h.8l.8-.1h.9l.8-.1h.8l.8-.1h.9l.8-.1h.8l.8-.1.9-.1.8-.1h.8l.9-.1.8-.1.8-.1.8-.1.9-.1.8-.1.8-.1.8-.1.9-.1.8-.1.8-.1.9-.2.8-.1.8-.1.8-.1.9-.2.8-.1.8-.1.8-.2.9-.1.8-.2.8-.1.9-.2.8-.2.8-.1.8-.2.9-.2.8-.1.8-.2.8-.2.9-.2.8-.2.8-.2.9-.2.8-.1.8-.2.8-.3.9-.2.8-.2.8-.2.8-.2.9-.2.8-.2.8-.3.9-.2.8-.2.8-.3.8-.2.9-.2.8-.3.8-.2.8-.3.9-.2.8-.3.8-.3.9-.2.8-.3.8-.3.8-.2.9-.3.8-.3.8-.3.8-.3.9-.2.8-.3.8-.3.9-.3.8-.3.8-.3.8-.3.9-.3.8-.3.8-.4.8-.3.9-.3.8-.3.8-.3.9-.4.8-.3.8-.3.8-.4.9-.3.8-.3.8-.4.9-.3.8-.4.8-.3.8-.4.9-.3.8-.4.8-.4.8-.3.9-.4.8-.4.8-.3.9-.4.8-.4.8-.4.8-.4.9-.3.8-.4.8-.4.8-.4.9-.4.8-.4.8-.4.9-.4.8-.4.8-.4.8-.4.9-.4.8-.5.8-.4.8-.4.9-.4.8-.4.8-.5.9-.4.8-.4.8-.4.8-.5.9-.4.8-.4.8-.5.8-.4.9-.5.8-.4.8-.5.9-.4.8-.5.8-.4.8-.5.9-.4.8-.5.8-.4.8-.5.9-.5.8-.4.8-.5.9-.5.8-.4.8-.5.8-.5.9-.5.8-.4.8-.5.8-.5.9-.5.8-.5.8-.4.9-.5.8-.5.8-.5.8-.5.9-.5.8-.5.8-.5.8-.5.9-.5.8-.5.8-.5.9-.5.8-.5.8-.5.8-.5.9-.5.8-.5.8-.5.8-.5.9-.5.8-.5.8-.5.9-.6.8-.5.8-.5.8-.5.9-.5.8-.5.8-.6.8-.5.9-.5.8-.5.8-.6.9-.5.8-.5.8-.5.8-.6.9-.5.8-.5.8-.5.8-.6.9-.5.8-.5.8-.6.9-.5.8-.5.8-.6.8-.5.9-.5.8-.6.8-.5.8-.5.9-.6.8-.5.8-.5.9-.6.8-.5.8-.5.8-.6.9-.5.8-.5.8-.6.8-.5.9-.6.8-.5.8-.5.9-.6.8-.5.8-.5.8-.6.9-.5.8-.6.8-.5.8-.5.9-.6.8-.5.8-.5.9-.6.8-.5.8-.6.8-.5.9-.5.8-.6.8-.5.8-.5.9-.6.8-.5.8-.5.9-.6.8-.5.8-.5.8-.6.9-.5.8-.5.8-.6.9-.5.8-.5.8-.5.8-.6.9-.5.8-.5.8-.5.8-.6.9-.5.8-.5.8-.5.9-.6.8-.5.8-.5.8-.5.9-.5.8-.6.8-.5.8-.5.9-.5.8-.5.8-.5.9-.5.8-.5.8-.6.8-.5.9-.5.8-.5.8-.5.8-.5.9-.5.8-.5.8-.5.9-.5.8-.5.8-.5.8-.5.9-.4.8-.5.8-.5.8-.5.9-.5.8-.5.8-.5.9-.4.8-.5.8-.5.8-.5.9-.5.8-.4.8-.5.8-.5.9-.4.8-.5.8-.5.9-.4.8-.5.8-.4.8-.5.9-.5.8-.4.8-.5.8-.4.9-.5.8-.4.8-.5.9-.4.8-.4.8-.5.8-.4.9-.4.8-.5.8-.4.8-.4.9-.5.8-.4.8-.4.9-.4.8-.4.8-.4.8-.5.9-.4.8-.4.8-.4.8-.4.9-.4.8-.4.8-.4.9-.4.8-.4.8-.4.8-.3.9-.4.8-.4.8-.4.8-.4.9-.3.8-.4.8-.4.9-.3.8-.4.8-.4.8-.3.9-.4.8-.3.8-.4.8-.3.9-.4.8-.3.8-.4.9-.3.8-.3.8-.4.8-.3.9-.3.8-.3.8-.4.8-.3.9-.3.8-.3.8-.3.9-.3.8-.3.8-.3.8-.3.9-.3.8-.3.8-.3.8-.3.9-.3.8-.2.8-.3.9-.3.8-.3.8-.2.8-.3.9-.3.8-.2.8-.3.8-.2.9-.3.8-.2.8-.3.9-.2.8-.3.8-.2.8-.2.9-.2.8-.3.8-.2.8-.2.9-.2.8-.2.8-.2.9-.2.8-.2.8-.2.8-.2.9-.2.8-.2.8-.2.8-.2.9-.2.8-.1.8-.2.9-.2.8-.2.8-.1.8-.2.9-.1.8-.2.8-.1.9-.2.8-.1.8-.2.8-.1.9-.1.8-.2.8-.1.8-.1.9-.1.8-.1.8-.2.9-.1.8-.1.8-.1.8-.1.9-.1h.8l.8-.1.8-.1.9-.1.8-.1.8-.1h.9l.8-.1.8-.1h.8l.9-.1h.8l.8-.1h.8l.9-.1h1.6l.9-.1H878.8l.9-.1H887.9l.9.1h1.6l.8.1H892.9l.8.1h.9l.8.1h.8l.8.1h.9l.8.1.8.1h.8l.9.1.8.1h.8l.9.1.8.1.8.1.8.1.9.1.8.1.8.1.8.1.9.1.8.1"
     stroke="orange" />
  <text
     id="text829"
     y="200.40323"
     x="68.548386"
     style="font-style:normal;font-weight:normal;font-size:40px;line-height:1.25;font-family:sans-serif;letter-spacing:0px;word-spacing:0px;fill:#000000;fill-opacity:1;stroke:none"
     xml:space="preserve"><tspan
       y="236.89644"
       x="68.548386"
       id="tspan827" /></text>
</svg>
