<svg xmlns="http://www.w3.org/2000/svg" xmlns:xlink="http://www.w3.org/1999/xlink" width="900" height="300"><defs><marker orient="auto" refY="0" refX="0" id="j" overflow="visible"><path d="M-1.2 0l-1 1 3.5-1-3.5-1z" fill="red" fill-rule="evenodd" stroke="red" stroke-width=".26"/></marker><marker orient="auto" refY="0" refX="0" id="i" overflow="visible"><path d="M1.2 0l1-1-3.5 1 3.5 1z" fill="red" fill-rule="evenodd" stroke="red" stroke-width=".26"/></marker><marker orient="auto" refY="0" refX="0" id="h" overflow="visible"><path d="M-1.2 0l-1 1 3.5-1-3.5-1z" fill="#0f0" fill-rule="evenodd" stroke="#0f0" stroke-width=".26"/></marker><marker orient="auto" refY="0" refX="0" id="g" overflow="visible"><path d="M1.2 0l1-1-3.5 1 3.5 1z" fill="#0f0" fill-rule="evenodd" stroke="#0f0" stroke-width=".26"/></marker><marker orient="auto" refY="0" refX="0" id="k" overflow="visible"><path d="M1.2 0l1-1-3.5 1 3.5 1z" fill="red" fill-rule="evenodd" stroke="red" stroke-width=".26"/></marker><marker orient="auto" refY="0" refX="0" id="l" overflow="visible"><path d="M-1.2 0l-1 1 3.5-1-3.5-1z" fill="red" fill-rule="evenodd" stroke="red" stroke-width=".26"/></marker></defs><g transform="translate(-8 50)"><path fill="none" d="M0 0h1000v200H0z"/><defs><path id="d" stroke="currentColor" stroke-width=".2" d="M-1-1h2v2h-2z"/><path id="b" d="M0-1.3l-1.3 2h2.6z" stroke="currentColor" stroke-width=".2"/><path id="f" d="M0 1.3L1.3.4.8-1H-.8L-1.3.4z" stroke="currentColor" stroke-width=".2"/><use xlink:href="#b" id="c" transform="scale(-1)" x="0" y="0" width="100%" height="100%" stroke="currentColor"/><use xlink:href="#d" id="e" transform="rotate(45)" x="0" y="0" width="100%" height="100%" stroke="currentColor"/><circle id="a" cx="0" cy="0" r="1" stroke="currentColor" stroke-width=".2"/></defs><path d="M84.6 183.4H143l8.4-165.3H343.4l8.4 165.3H543.8l8.3-165.3H744.1l8.4 165.3H911.1" stroke="#00f" color="#000" fill="none" stroke-width="3"/></g><path d="M143.4 68.1v-40M544.1 68.1v-40" fill="none" stroke="#000" stroke-dasharray="2.976,2.976"/><path d="M148.1 47.8h390.1" fill="none" stroke="#0f0" stroke-width="3" stroke-miterlimit="2" marker-start="url(#g)" marker-end="url(#h)"/><text style="line-height:1.25;-inkscape-font-specification:'HGSKyokashotai, Normal';font-variant-ligatures:normal;font-variant-caps:normal;font-variant-numeric:normal;font-feature-settings:normal;text-align:start" x="172.6" y="33.1" font-weight="400" font-size="40" font-family="HGSKyokashotai" letter-spacing="0" word-spacing="0"><tspan x="172.6" y="33.1">波長(周波数の逆数)</tspan></text><text style="line-height:1.25;-inkscape-font-specification:'HGSKyokashotai, Normal';font-variant-ligatures:normal;font-variant-caps:normal;font-variant-numeric:normal;font-feature-settings:normal;text-align:start" x="-2.5" y="159.1" font-weight="400" font-size="40" font-family="HGSKyokashotai" letter-spacing="0" word-spacing="0"><tspan x="-2.5" y="159.1">振幅</tspan></text><text style="line-height:1.25;-inkscape-font-specification:'HGSKyokashotai, Normal';font-variant-ligatures:normal;font-variant-caps:normal;font-variant-numeric:normal;font-feature-settings:normal;text-align:start" x="482.4" y="286.3" font-weight="400" font-size="40" font-family="HGSKyokashotai" letter-spacing="0" word-spacing="0"><tspan x="482.4" y="286.3">波形：方形波（矩形波）</tspan></text><path d="M92 149.5h492.7M92 68.1h51.4" fill="none" stroke="#000" stroke-dasharray="6,1"/><path d="M115.6 73v72" fill="none" stroke="red" stroke-width="2.8" marker-start="url(#i)" marker-end="url(#j)"/><path d="M115.6 155.2V227" fill="none" stroke="red" stroke-width="2.8" marker-start="url(#k)" marker-end="url(#l)"/></svg>