<svg xmlns="http://www.w3.org/2000/svg" xmlns:xlink="http://www.w3.org/1999/xlink" width="500" height="100"><defs/><path fill="none" d="M0 0h500v100H0z"/><defs><path id="d" stroke="currentColor" stroke-width=".22" d="M-1-1h2v2h-2z"/><path id="b" stroke="currentColor" stroke-width=".22" d="M0-1.33l-1.33 2h2.66z"/><path id="f" stroke="currentColor" stroke-width=".22" d="M0 1.33L1.26.41.78-1.07H-.78L-1.26.4z"/><use id="c" stroke="currentColor" transform="rotate(180)" xlink:href="#b"/><use id="e" stroke="currentColor" transform="rotate(45)" xlink:href="#d"/><circle id="a" cx="0" cy="0" r="1" stroke="currentColor" stroke-width=".22"/></defs><path fill="none" stroke="#000" d="M84.6 50.7h326.5" color="#000"/><path fill="none" stroke="#00F" stroke-width="3" d="M84.6 50.7l.3-.1.4-.1.3-.1.3-.1.3-.1.4-.1.3-.1.3-.1.3-.1.4-.1.3-.1.3-.1.3-.1.4-.1.3-.1.3-.1.4-.1.3-.1.3-.1.3-.1.4-.1.3-.1.3-.1.3-.1.4-.1.3-.1.3-.1.4-.1.3-.1.3-.1.3-.1.4-.1.3-.1.3-.1.3-.1.4-.1.3-.1.3-.1.3-.1.4-.1.3-.1.3-.1.4-.2.3-.1.3-.1.3-.1.4-.1.3-.1.3-.1.3-.1.4-.1.3-.1.3-.1.3-.1.4-.1.3-.1.3-.1.4-.1.3-.1.3-.1.3-.1.4-.1.3-.1.3-.1.3-.1.4-.1.3-.1.3-.1.4-.1.3-.1.3-.1.3-.1.4-.1.3-.1.3-.1.3-.1.4-.1.3-.1.3-.1.3-.1.4-.1.3-.1.3-.1.4-.1.3-.1.3-.1.3-.1.4-.1.3-.1.3-.1.3-.1.4-.1.3-.1.3-.1.3-.1.4-.1.3-.1.3-.1.4-.1h.3l.3-.1.3-.1.4-.1.3-.1.3-.1.3-.1.4-.1.3-.1.3-.1.4-.1.3-.1.3-.1.3-.1.4-.1.3-.1.3-.1.3-.1.4-.1.3-.1.3-.1.3-.1.4-.1.3-.1.3-.1.4-.1.3-.1h.3l.3-.1.4-.1.3-.1.3-.1.3-.1.4-.1.3-.1.3-.1.3-.1.4-.1.3-.1.3-.1.4-.1.3-.1.3-.1h.3l.4-.1.3-.1.3-.1.3-.1.4-.1.3-.1.3-.1.4-.1.3-.1.3-.1.3-.1h.4l.3-.1.3-.1.3-.1.4-.1.3-.1.3-.1.3-.1.4-.1.3-.1h.3l.4-.1.3-.1.3-.1.3-.1.4-.1.3-.1.3-.1h.3l.4-.1.3-.1.3-.1.3-.1.4-.1.3-.1.3-.1h.4l.3-.1.3-.1.3-.1.4-.1.3-.1.3-.1h.3l.4-.1.3-.1.3-.1.4-.1.3-.1.3-.1h.3l.4-.1.3-.1.3-.1.3-.1.4-.1h.3l.3-.1.3-.1.4-.1.3-.1.3-.1h.4l.3-.1.3-.1.3-.1.4-.1h.3l.3-.1.3-.1.4-.1.3-.1h.3l.3-.1.4-.1.3-.1.3-.1h.4l.3-.1.3-.1.3-.1h.4l.3-.1.3-.1.3-.1.4-.1h.3l.3-.1.4-.1.3-.1h.3l.3-.1.4-.1.3-.1h.3l.3-.1.4-.1.3-.1h.3l.3-.1.4-.1.3-.1h.3l.4-.1.3-.1.3-.1h.3l.4-.1.3-.1h.3l.3-.1.4-.1.3-.1h.3l.3-.1.4-.1h.3l.3-.1.4-.1h.3l.3-.1.3-.1.4-.1h.3l.3-.1.3-.1h.4l.3-.1.3-.1h.4l.3-.1.3-.1h.3l.4-.1.3-.1h.3l.3-.1.4-.1h.3l.3-.1h.3l.4-.1.3-.1h.3l.4-.1.3-.1h.3l.3-.1.4-.1h.3l.3-.1h.3l.4-.1.3-.1h.3l.3-.1h.4l.3-.1.3-.1h.4l.3-.1h.3l.3-.1.4-.1h.3l.3-.1h.3l.4-.1h.3l.3-.1.4-.1h.3l.3-.1h.3l.4-.1h.3l.3-.1h.3l.4-.1.3-.1h.3l.3-.1h.4l.3-.1h.3l.4-.1h.3l.3-.1h.3l.4-.1h.3l.3-.1h.3l.4-.1h.3l.3-.1h.3l.4-.1h.3l.3-.1h.4l.3-.1h.3l.3-.1h.4l.3-.1h.3l.3-.1h.7l.3-.1h.4l.3-.1h.3l.3-.1h.4l.3-.1h.6l.4-.1h.3l.3-.1h.7l.3-.1h.3l.4-.1h.3l.3-.1h.7l.3-.1h.6l.4-.1h.3l.3-.1h.7l.3-.1h.7l.3-.1h.6l.4-.1h.3l.3-.1h.7l.3-.1h.7l.3-.1h1l.3-.1h.6l.4-.1h.6l.3-.1h1l.4-.1h.6l.3-.1h1l.3-.1h1l.3-.1h1l.4-.1H225.5l.3-.1h1l.3-.1h1.6l.4-.1H230.4l.3-.1h1.6l.4-.1H234.9l.4-.1H237.9l.3-.1H241.8l.3-.1H253.6l.3.1H257.5l.3.1H260.4l.4.1H263l.4.1h1.6l.3.1h1.3l.4.1H268.6l.3.1h1l.3.1h1.3l.4.1h1l.3.1h1l.3.1h1l.3.1h.6l.4.1h1l.3.1h.6l.4.1h.6l.3.1h1l.3.1h.7l.3.1h.7l.3.1h.3l.4.1h.6l.3.1h.7l.3.1h.7l.3.1h.3l.4.1h.6l.3.1h.7l.3.1h.3l.4.1h.3l.3.1h.7l.3.1h.3l.4.1h.6l.3.1h.4l.3.1h.3l.3.1h.4l.3.1h.7l.3.1h.3l.3.1h.4l.3.1h.3l.3.1h.4l.3.1h.3l.4.1h.3l.3.1h.3l.4.1h.3l.3.1h.3l.4.1h.3l.3.1h.3l.4.1h.3l.3.1h.4l.3.1h.3l.3.1.4.1h.3l.3.1h.3l.4.1h.3l.3.1h.3l.4.1.3.1h.3l.4.1h.3l.3.1h.3l.4.1.3.1h.3l.3.1h.4l.3.1.3.1h.4l.3.1h.3l.3.1.4.1h.3l.3.1h.3l.4.1.3.1h.3l.3.1.4.1h.3l.3.1.4.1h.3l.3.1h.3l.4.1.3.1h.3l.3.1.4.1h.3l.3.1.3.1h.4l.3.1.3.1h.4l.3.1.3.1h.3l.4.1.3.1.3.1h.3l.4.1.3.1h.3l.4.1.3.1h.3l.3.1.4.1.3.1h.3l.3.1.4.1h.3l.3.1.3.1.4.1h.3l.3.1.4.1.3.1h.3l.3.1.4.1.3.1h.3l.3.1.4.1.3.1h.3l.3.1.4.1.3.1h.3l.4.1.3.1.3.1.3.1h.4l.3.1.3.1.3.1h.4l.3.1.3.1.4.1.3.1h.3l.3.1.4.1.3.1.3.1h.3l.4.1.3.1.3.1.3.1h.4l.3.1.3.1.4.1.3.1.3.1h.3l.4.1.3.1.3.1.3.1.4.1h.3l.3.1.3.1.4.1.3.1.3.1.4.1h.3l.3.1.3.1.4.1.3.1.3.1.3.1h.4l.3.1.3.1.4.1.3.1.3.1.3.1.4.1h.3l.3.1.3.1.4.1.3.1.3.1.3.1.4.1h.3l.3.1.4.1.3.1.3.1.3.1.4.1.3.1.3.1.3.1h.4l.3.1.3.1.3.1.4.1.3.1.3.1.4.1.3.1.3.1.3.1.4.1h.3l.3.1.3.1.4.1.3.1.3.1.4.1.3.1.3.1.3.1.4.1.3.1.3.1.3.1.4.1.3.1h.3l.3.1.4.1.3.1.3.1.4.1.3.1.3.1.3.1.4.1.3.1.3.1.3.1.4.1.3.1.3.1.3.1.4.1.3.1.3.1.4.1.3.1.3.1.3.1.4.1.3.1.3.1h.3l.4.1.3.1.3.1.4.1.3.1.3.1.3.1.4.1.3.1.3.1.3.1.4.1.3.1.3.1.3.1.4.1.3.1.3.1.4.1.3.1.3.1.3.1.4.1.3.1.3.1.3.1.4.1.3.1.3.1.3.1.4.1.3.1.3.1.4.1.3.1.3.1.3.1.4.1.3.1.3.1.3.1.4.1.3.1.3.1.4.1.3.1.3.1.3.1.4.1.3.1.3.1.3.1.4.1.3.1.3.1.3.1.4.2.3.1.3.1.4.1.3.1.3.1.3.1.4.1.3.1.3.1.3.1.4.1.3.1.3.1.3.1.4.1.3.1.3.1.4.1.3.1.3.1.3.1.4.1.3.1.3.1.3.1.4.1.3.1.3.1.4.1.3.1.3.1.3.1.4.1.3.1.3.1.3.1.4.1.3.1.3.1.3.1.4.1.3.1" color="#000"/><path fill="none" stroke="#0F0" stroke-width="3" d="M84.6 50.7l.3-.2.4-.2.3-.2.3-.2.3-.2.4-.2.3-.2.3-.2.3-.2.4-.2.3-.2.3-.2.3-.2.4-.2.3-.2.3-.2.4-.2.3-.2.3-.2.3-.2.4-.2.3-.3.3-.2.3-.2.4-.2.3-.2.3-.2.4-.2.3-.2.3-.2.3-.2.4-.2.3-.2.3-.2.3-.2.4-.2.3-.2.3-.2.3-.2.4-.2.3-.2.3-.2.4-.2.3-.2.3-.2.3-.2.4-.2.3-.2.3-.2.3-.1.4-.2.3-.2.3-.2.3-.2.4-.2.3-.2.3-.2.4-.2.3-.2.3-.2.3-.2.4-.2.3-.2.3-.1.3-.2.4-.2.3-.2.3-.2.4-.2.3-.2.3-.2.3-.1.4-.2.3-.2.3-.2.3-.2.4-.2.3-.1.3-.2.3-.2.4-.2.3-.2.3-.1.4-.2.3-.2.3-.2.3-.1.4-.2.3-.2.3-.2.3-.1.4-.2.3-.2.3-.1.3-.2.4-.2.3-.2.3-.1.4-.2.3-.2.3-.1.3-.2.4-.2.3-.1.3-.2.3-.1.4-.2.3-.2.3-.1.4-.2.3-.1.3-.2.3-.1.4-.2.3-.2.3-.1.3-.2.4-.1.3-.2.3-.1.3-.2.4-.1.3-.2.3-.1.4-.2.3-.1.3-.1.3-.2.4-.1.3-.2.3-.1.3-.1.4-.2.3-.1.3-.2.3-.1.4-.1.3-.2.3-.1.4-.1.3-.2.3-.1.3-.1.4-.1.3-.2.3-.1.3-.1.4-.1.3-.2.3-.1.4-.1.3-.1.3-.1.3-.2.4-.1.3-.1.3-.1.3-.1.4-.1.3-.1.3-.1.3-.2.4-.1.3-.1.3-.1.4-.1.3-.1.3-.1.3-.1.4-.1.3-.1.3-.1.3-.1.4-.1.3-.1.3-.1h.3l.4-.1.3-.1.3-.1.4-.1.3-.1.3-.1h.3l.4-.1.3-.1.3-.1.3-.1h.4l.3-.1.3-.1.4-.1h.3l.3-.1.3-.1.4-.1h.3l.3-.1.3-.1h.4l.3-.1h.3l.3-.1.4-.1h.3l.3-.1h.4l.3-.1h.3l.3-.1h.4l.3-.1h.3l.3-.1h.4l.3-.1h.3l.3-.1h.7l.3-.1h.7l.3-.1h.7l.3-.1h1l.3-.1h1l.3-.1h1.6l.4-.1H168.9l.3.1h1.7l.3.1h1.3l.3.1h1l.4.1h.6l.3.1h.4l.3.1h.6l.4.1h.3l.3.1h.7l.3.1h.3l.4.1h.3l.3.1h.3l.4.1.3.1h.3l.3.1h.4l.3.1.3.1h.3l.4.1h.3l.3.1.4.1.3.1h.3l.3.1.4.1h.3l.3.1.3.1.4.1h.3l.3.1.4.1.3.1.3.1.3.1h.4l.3.1.3.1.3.1.4.1.3.1.3.1.3.1.4.1.3.1.3.1.4.1.3.1.3.1.3.1.4.1.3.1.3.1.3.1.4.1.3.1.3.1.3.1.4.1.3.2.3.1.4.1.3.1.3.1.3.1.4.2.3.1.3.1.3.1.4.1.3.2.3.1.4.1.3.2.3.1.3.1.4.1.3.2.3.1.3.1.4.2.3.1.3.1.3.2.4.1.3.2.3.1.4.1.3.2.3.1.3.2.4.1.3.2.3.1.3.2.4.1.3.2.3.1.3.2.4.1.3.2.3.1.4.2.3.1.3.2.3.1.4.2.3.2.3.1.3.2.4.1.3.2.3.2.4.1.3.2.3.2.3.1.4.2.3.2.3.1.3.2.4.2.3.1.3.2.3.2.4.2.3.1.3.2.4.2.3.2.3.1.3.2.4.2.3.2.3.1.3.2.4.2.3.2.3.2.3.1.4.2.3.2.3.2.4.2.3.2.3.1.3.2.4.2.3.2.3.2.3.2.4.2.3.2.3.1.4.2.3.2.3.2.3.2.4.2.3.2.3.2.3.2.4.2.3.2.3.2.3.2.4.1.3.2.3.2.4.2.3.2.3.2.3.2.4.2.3.2.3.2.3.2.4.2.3.2.3.2.3.2.4.2.3.2.3.2.4.2.3.2.3.2.3.2.4.2.3.2.3.2.3.2.4.2.3.2.3.2.4.3.3.2.3.2.3.2.4.2.3.2.3.2.3.2.4.2.3.2.3.2.3.2.4.2.3.2.3.2.4.2.3.2.3.2.3.2.4.2.3.2.3.3.3.2.4.2.3.2.3.2.3.2.4.2.3.2.3.2.4.2.3.2.3.2.3.2.4.2.3.2.3.2.3.2.4.2.3.2.3.2.3.2.4.3.3.2.3.2.4.2.3.2.3.2.3.2.4.2.3.2.3.2.3.2.4.2.3.2.3.2.4.2.3.2.3.2.3.2.4.2.3.2.3.2.3.2.4.2.3.2.3.2.3.2.4.2.3.2.3.2.4.1.3.2.3.2.3.2.4.2.3.2.3.2.3.2.4.2.3.2.3.2.3.2.4.2.3.1.3.2.4.2.3.2.3.2.3.2.4.2.3.2.3.1.3.2.4.2.3.2.3.2.4.2.3.1.3.2.3.2.4.2.3.2.3.1.3.2.4.2.3.2.3.1.3.2.4.2.3.2.3.1.4.2.3.2.3.2.3.1.4.2.3.2.3.1.3.2.4.2.3.1.3.2.3.2.4.1.3.2.3.2.4.1.3.2.3.1.3.2.4.2.3.1.3.2.3.1.4.2.3.1.3.2.4.1.3.2.3.1.3.2.4.1.3.2.3.1.3.2.4.1.3.2.3.1.3.2.4.1.3.1.3.2.4.1.3.2.3.1.3.1.4.2.3.1.3.1.3.2.4.1.3.1.3.1.3.2.4.1.3.1.3.2.4.1.3.1.3.1.3.1.4.2.3.1.3.1.3.1.4.1.3.1.3.2.4.1.3.1.3.1.3.1.4.1.3.1.3.1.3.1.4.1.3.1.3.1.3.1.4.1.3.1.3.1.4.1.3.1.3.1.3.1.4.1.3.1.3.1.3.1h.4l.3.1.3.1.3.1.4.1.3.1h.3l.4.1.3.1.3.1h.3l.4.1.3.1h.3l.3.1.4.1.3.1h.3l.4.1h.3l.3.1.3.1h.4l.3.1h.3l.3.1.4.1h.3l.3.1h.3l.4.1h.3l.3.1h.7l.3.1h.3l.4.1h.6l.3.1h.4l.3.1h.6l.4.1h1l.3.1h1.3l.3.1H326.5l.3.1H332.3l.4-.1H334.3l.3-.1h1l.3-.1h1l.3-.1h.7l.3-.1h.7l.3-.1h.7l.3-.1h.3l.3-.1h.4l.3-.1h.3l.3-.1h.4l.3-.1h.3l.3-.1h.4l.3-.1h.3l.4-.1.3-.1h.3l.3-.1h.4l.3-.1.3-.1h.3l.4-.1.3-.1.3-.1h.3l.4-.1.3-.1.3-.1h.4l.3-.1.3-.1.3-.1.4-.1h.3l.3-.1.3-.1.4-.1.3-.1.3-.1.4-.1h.3l.3-.1.3-.1.4-.1.3-.1.3-.1.3-.1.4-.1.3-.1.3-.1.3-.1.4-.1.3-.1.3-.1.4-.1.3-.2.3-.1.3-.1.4-.1.3-.1.3-.1.3-.1.4-.1.3-.2.3-.1.3-.1.4-.1.3-.1.3-.2.4-.1.3-.1.3-.1.3-.2.4-.1.3-.1.3-.1.3-.2.4-.1.3-.1.3-.2.4-.1.3-.1.3-.2.3-.1.4-.2.3-.1.3-.1.3-.2.4-.1.3-.2.3-.1.3-.1.4-.2.3-.1.3-.2.4-.1.3-.2.3-.1.3-.2.4-.1.3-.2.3-.1.3-.2.4-.2.3-.1.3-.2.3-.1.4-.2.3-.1.3-.2.4-.2.3-.1.3-.2.3-.1.4-.2.3-.2.3-.1.3-.2.4-.2.3-.1.3-.2.4-.2.3-.2.3-.1.3-.2.4-.2.3-.1.3-.2.3-.2.4-.2.3-.1.3-.2.3-.2.4-.2.3-.1.3-.2.4-.2.3-.2.3-.2.3-.1.4-.2.3-.2.3-.2.3-.2.4-.2.3-.1.3-.2.3-.2.4-.2.3-.2.3-.2.4-.2.3-.2.3-.1.3-.2.4-.2.3-.2.3-.2.3-.2.4-.2.3-.2.3-.2.4-.2.3-.2.3-.2.3-.2.4-.2.3-.1.3-.2.3-.2.4-.2.3-.2.3-.2.3-.2.4-.2.3-.2.3-.2.4-.2.3-.2.3-.2.3-.2.4-.2.3-.2.3-.2.3-.2.4-.2.3-.2.3-.2.3-.2.4-.2.3-.2.3-.2.4-.2.3-.2.3-.2.3-.3.4-.2.3-.2.3-.2.3-.2.4-.2.3-.2.3-.2.4-.2.3-.2.3-.2.3-.2.4-.2.3-.2.3-.2.3-.2.4-.2.3-.2.3-.2.3-.2.4-.2.3-.2" color="#000"/><path fill="none" stroke="orange" stroke-width="3" d="M84.6 50.7l.3-.3.4-.3.3-.3.3-.3.3-.3.4-.3.3-.3.3-.3.3-.3.4-.3.3-.3.3-.3.3-.3.4-.3.3-.4.3-.3.4-.3.3-.3.3-.3.3-.3.4-.3.3-.3.3-.3.3-.3.4-.3.3-.3.3-.3.4-.3.3-.3.3-.3.3-.3.4-.3.3-.3.3-.2.3-.3.4-.3.3-.3.3-.3.3-.3.4-.3.3-.3.3-.3.4-.2.3-.3.3-.3.3-.3.4-.3.3-.2.3-.3.3-.3.4-.3.3-.2.3-.3.3-.3.4-.2.3-.3.3-.3.4-.2.3-.3.3-.3.3-.2.4-.3.3-.2.3-.3.3-.2.4-.3.3-.2.3-.3.4-.2.3-.3.3-.2.3-.3.4-.2.3-.2.3-.3.3-.2.4-.2.3-.3.3-.2.3-.2.4-.2.3-.3.3-.2.4-.2.3-.2.3-.2.3-.2.4-.2.3-.3.3-.2.3-.2.4-.2.3-.2.3-.2.3-.1.4-.2.3-.2.3-.2.4-.2.3-.2.3-.2.3-.1.4-.2.3-.2.3-.2.3-.1.4-.2.3-.2.3-.1.4-.2.3-.1.3-.2.3-.1.4-.2.3-.1.3-.2.3-.1.4-.1.3-.2.3-.1.3-.1.4-.2.3-.1.3-.1.4-.1.3-.1.3-.2.3-.1.4-.1.3-.1.3-.1.3-.1.4-.1.3-.1.3-.1.3-.1h.4l.3-.1.3-.1.4-.1.3-.1h.3l.3-.1.4-.1h.3l.3-.1h.3l.4-.1.3-.1h.3l.4-.1h.6l.3-.1h.7l.3-.1h1l.3-.1H140.8l.3.1h1l.3.1h.7l.3.1h.7l.3.1h.3l.4.1.3.1h.3l.3.1h.4l.3.1.3.1h.4l.3.1.3.1.3.1.4.1h.3l.3.1.3.1.4.1.3.1.3.1.3.1.4.1.3.1.3.1.4.2.3.1.3.1.3.1.4.1.3.2.3.1.3.1.4.2.3.1.3.1.3.2.4.1.3.2.3.1.4.2.3.1.3.2.3.1.4.2.3.2.3.1.3.2.4.2.3.2.3.1.4.2.3.2.3.2.3.2.4.2.3.2.3.1.3.2.4.2.3.2.3.2.3.2.4.3.3.2.3.2.4.2.3.2.3.2.3.2.4.3.3.2.3.2.3.2.4.3.3.2.3.2.3.3.4.2.3.2.3.3.4.2.3.3.3.2.3.3.4.2.3.3.3.2.3.3.4.2.3.3.3.2.4.3.3.3.3.2.3.3.4.3.3.2.3.3.3.3.4.2.3.3.3.3.3.3.4.2.3.3.3.3.4.3.3.3.3.2.3.3.4.3.3.3.3.3.3.3.4.3.3.3.3.3.3.2.4.3.3.3.3.3.4.3.3.3.3.3.3.3.4.3.3.3.3.3.3.3.4.3.3.3.3.3.4.3.3.3.3.3.3.3.4.4.3.3.3.3.3.3.4.3.3.3.3.3.3.3.4.3.3.3.3.3.4.3.3.3.3.3.3.3.4.4.3.3.3.3.3.3.4.3.3.3.3.3.3.3.4.3.3.3.3.3.4.3.3.3.3.3.3.4.4.3.3.3.3.3.3.3.4.3.3.3.3.3.4.3.3.3.3.3.3.3.4.3.3.3.3.3.3.3.4.3.3.3.3.3.3.2.4.3.3.3.3.3.4.3.3.3.3.3.3.3.4.3.3.2.3.3.3.3.4.3.3.3.3.2.3.3.4.3.3.3.3.2.4.3.3.3.3.2.3.3.4.3.3.2.3.3.3.3.4.2.3.3.3.2.4.3.3.2.3.3.3.2.4.3.3.2.3.3.3.2.4.3.3.2.3.2.3.3.4.2.3.2.3.3.4.2.3.2.3.2.3.3.4.2.3.2.3.2.3.2.4.2.3.2.3.3.3.2.4.2.3.2.3.2.4.2.3.1.3.2.3.2.4.2.3.2.3.2.3.2.4.1.3.2.3.2.4.2.3.1.3.2.3.2.4.1.3.2.3.1.3.2.4.1.3.2.3.1.3.2.4.1.3.1.3.2.4.1.3.1.3.2.3.1.4.1.3.1.3.1.3.2.4.1.3.1.3.1.3.1.4.1.3.1.3.1.4.1.3.1h.3l.3.1.4.1.3.1.3.1h.3l.4.1.3.1h.3l.4.1h.3l.3.1.3.1h.4l.3.1h.6l.4.1h.6l.3.1h1l.4.1H249.6l.4-.1h1l.3-.1h.6l.4-.1h.6l.3-.1h.4l.3-.1.3-.1h.3l.4-.1h.3l.3-.1.4-.1h.3l.3-.1.3-.1.4-.1.3-.1h.3l.3-.1.4-.1.3-.1.3-.1.4-.1.3-.1.3-.1.3-.1.4-.1.3-.2.3-.1.3-.1.4-.1.3-.1.3-.2.3-.1.4-.1.3-.2.3-.1.4-.1.3-.2.3-.1.3-.2.4-.1.3-.2.3-.1.3-.2.4-.1.3-.2.3-.2.3-.1.4-.2.3-.2.3-.2.4-.1.3-.2.3-.2.3-.2.4-.2.3-.2.3-.2.3-.1.4-.2.3-.2.3-.2.4-.2.3-.2.3-.3.3-.2.4-.2.3-.2.3-.2.3-.2.4-.2.3-.3.3-.2.3-.2.4-.2.3-.3.3-.2.4-.2.3-.3.3-.2.3-.2.4-.3.3-.2.3-.3.3-.2.4-.3.3-.2.3-.3.3-.2.4-.3.3-.2.3-.3.4-.2.3-.3.3-.3.3-.2.4-.3.3-.3.3-.2.3-.3.4-.3.3-.2.3-.3.4-.3.3-.3.3-.2.3-.3.4-.3.3-.3.3-.3.3-.2.4-.3.3-.3.3-.3.3-.3.4-.3.3-.3.3-.3.4-.3.3-.2.3-.3.3-.3.4-.3.3-.3.3-.3.3-.3.4-.3.3-.3.3-.3.3-.3.4-.3.3-.3.3-.3.4-.3.3-.3.3-.3.3-.3.4-.3.3-.4.3-.3.3-.3.4-.3.3-.3.3-.3.4-.3.3-.3.3-.3.3-.3.4-.3.3-.3.3-.3.3-.3.4-.3.3-.4.3-.3.3-.3.4-.3.3-.3.3-.3.4-.3.3-.3.3-.3.3-.3.4-.3.3-.3.3-.3.3-.3.4-.4.3-.3.3-.3.3-.3.4-.3.3-.3.3-.3.4-.3.3-.3.3-.3.3-.3.4-.3.3-.3.3-.3.3-.3.4-.3.3-.3.3-.3.4-.3.3-.2.3-.3.3-.3.4-.3.3-.3.3-.3.3-.3.4-.3.3-.3.3-.2.3-.3.4-.3.3-.3.3-.3.4-.2.3-.3.3-.3.3-.3.4-.2.3-.3.3-.3.3-.2.4-.3.3-.3.3-.2.3-.3.4-.3.3-.2.3-.3.4-.2.3-.3.3-.2.3-.3.4-.2.3-.3.3-.2.3-.3.4-.2.3-.3.3-.2.4-.2.3-.3.3-.2.3-.2.4-.3.3-.2.3-.2.3-.2.4-.3.3-.2.3-.2.3-.2.4-.2.3-.2.3-.2.4-.3.3-.2.3-.2.3-.2.4-.2.3-.2.3-.1.3-.2.4-.2.3-.2.3-.2.3-.2.4-.2.3-.1.3-.2.4-.2.3-.2.3-.1.3-.2.4-.2.3-.1.3-.2.3-.1.4-.2.3-.1.3-.2.4-.1.3-.2.3-.1.3-.1.4-.2.3-.1.3-.1.3-.2.4-.1.3-.1.3-.1.3-.1.4-.2.3-.1.3-.1.4-.1.3-.1.3-.1.3-.1.4-.1.3-.1.3-.1h.3l.4-.1.3-.1.3-.1.3-.1h.4l.3-.1.3-.1h.4l.3-.1h.3l.3-.1.4-.1h.3l.3-.1h.7l.3-.1h.7l.3-.1h1l.3-.1H358.5l.3.1h1l.3.1h.7l.3.1h.6l.4.1h.3l.3.1.4.1h.3l.3.1h.3l.4.1.3.1h.3l.3.1.4.1.3.1.3.1h.4l.3.1.3.1.3.1.4.1.3.1.3.1.3.1.4.1.3.1.3.2.3.1.4.1.3.1.3.1.4.2.3.1.3.1.3.2.4.1.3.1.3.2.3.1.4.2.3.1.3.2.3.1.4.2.3.1.3.2.4.2.3.1.3.2.3.2.4.2.3.1.3.2.3.2.4.2.3.2.3.2.4.2.3.1.3.2.3.2.4.2.3.2.3.2.3.3.4.2.3.2.3.2.3.2.4.2.3.2.3.3.4.2.3.2.3.2.3.3.4.2.3.2.3.3.3.2.4.2.3.3.3.2.3.3.4.2.3.3.3.2.4.3.3.2.3.3.3.2.4.3.3.2.3.3.3.3.4.2.3.3.3.3.4.2.3.3.3.3.3.2.4.3.3.3.3.3.3.2.4.3.3.3.3.3.3.3.4.2.3.3.3.3.4.3.3.3.3.3.3.3.4.3.3.3.3.2.3.3.4.3.3.3.3.3.3.3.4.3.3.3.3.3.4.3.3.3.3.3.3.3.4.3.3.3.3.3.3.3.4.3.3.3.3.4.4.3.3.3.3.3.3.3.4.3.3.3.3.3.3.3.4.3.3.3.3.3.3.3.4.3.3.3" color="#000"/></svg>