<svg xmlns="http://www.w3.org/2000/svg" viewBox="0 0 79.67 10.04" height="100" width="793.7" version="1.2"><text y="-.88" x="3.79" font-size="2.2" font-family="serif" fill="currentColor"></text><path stroke="currentColor" stroke-width=".08" stroke-linecap="round" stroke-linejoin="round" d="M3.83 7.5h72M3.83 6.5h72M3.83 5.5h72M3.83 4.5h72M3.83 3.5h72"/><rect ry=".09" height=".18" width="2.98" y="1.41" x="71.3" fill="currentColor"/><rect ry=".09" height=".18" width="2.98" y="2.41" x="71.3" fill="currentColor"/><rect ry=".09" height=".18" width="2.67" y="2.41" x="67.53" fill="currentColor"/><rect ry=".09" height=".18" width="2.66" y="2.41" x="63.46" fill="currentColor"/><rect ry=".09" height=".18" width="2.98" y="2.41" x="59.06" fill="currentColor"/><rect ry=".09" height=".18" width="2.98" y="8.41" x="22.35" fill="currentColor"/><rect ry=".09" height=".18" width="2.98" y="8.41" x="9.1" fill="currentColor"/><rect ry=".09" height=".18" width="2.98" y="9.41" x="9.1" fill="currentColor"/><path d="M52.26 3.04c-.2 0-.28.17-.28.35 0 .32.24.56.55.56.2 0 .28-.16.28-.35a.54.54 0 00-.55-.56zm1.13.46c0 .17-.14.3-.3.38-.21.11-.45.16-.7.16-.24 0-.48-.05-.7-.16-.15-.09-.29-.21-.29-.38s.14-.3.3-.38c.2-.12.45-.16.7-.16.24 0 .48.04.7.16.15.08.29.2.29.38zM48.18 3.54c-.2 0-.28.17-.28.35 0 .32.24.56.55.56.2 0 .28-.16.28-.35a.54.54 0 00-.55-.56zm1.13.46c0 .17-.14.3-.3.38-.2.11-.45.16-.7.16-.24 0-.48-.05-.7-.16-.15-.09-.29-.21-.29-.38s.14-.3.3-.38c.2-.12.45-.16.7-.16.24 0 .48.04.7.16.15.08.29.2.29.38zM44.1 4.04c-.2 0-.28.17-.28.35 0 .32.24.56.55.56.2 0 .28-.16.28-.35a.54.54 0 00-.55-.56zm1.13.46c0 .17-.14.3-.3.38-.2.11-.45.16-.7.16-.24 0-.48-.05-.7-.16-.15-.09-.29-.21-.29-.38s.14-.3.3-.38c.21-.12.45-.16.7-.16.24 0 .48.04.7.16.15.08.29.2.29.38zM40.02 4.54c-.2 0-.28.17-.28.35 0 .32.24.56.56.56.2 0 .28-.16.28-.35a.54.54 0 00-.56-.56zm1.13.46c0 .17-.14.3-.3.38-.2.11-.45.16-.7.16-.23 0-.48-.05-.7-.16-.15-.09-.29-.21-.29-.38s.14-.3.3-.38c.21-.12.46-.16.7-.16.24 0 .48.04.7.16.15.08.3.2.3.38zM34.03 5.32v.32l.01.27c.19-.16.39-.32.39-.56 0-.14-.06-.28-.18-.28s-.21.12-.22.25zm-.15.72l-.05-2.4a.22.22 0 01.1-.02c.04 0 .07.01.1.03l-.02 1.4a.6.6 0 01.35-.13c.21 0 .37.19.37.4 0 .33-.36.47-.6.68-.06.04-.1.13-.17.13a.08.08 0 01-.08-.09zM72.66 1.04c-.2 0-.29.17-.29.35 0 .32.24.56.56.56.2 0 .28-.16.28-.35a.54.54 0 00-.56-.56zm1.12.46c0 .17-.14.3-.29.38-.21.11-.45.16-.7.16-.24 0-.49-.05-.7-.16-.16-.09-.3-.21-.3-.38s.14-.3.3-.38c.21-.12.46-.16.7-.16.24 0 .48.04.7.16.15.08.3.2.3.38zM66.65.5a.2.2 0 01.1-.03l.09.03-.01.7.43-.07h.02c.03 0 .06.03.06.07l.03 2.3a.2.2 0 01-.19 0v-.71l-.43.07a.07.07 0 01-.07-.06zm.55 1.04l-.38.06v.85l.38-.06zM68.58 1.54c-.2 0-.29.17-.29.35 0 .32.24.56.56.56.2 0 .28-.16.28-.35a.54.54 0 00-.55-.56zM69.7 2c0 .17-.14.3-.29.38-.21.11-.45.16-.7.16-.24 0-.49-.05-.7-.16-.15-.09-.3-.21-.3-.38s.15-.3.3-.38c.21-.12.46-.16.7-.16.25 0 .49.04.7.16.15.08.3.2.3.38zM62.59 1.82v.28l-.01.04c0 .09 0 .18.02.27.18-.16.38-.32.38-.56 0-.14-.06-.28-.18-.28s-.2.12-.21.25zm-.16.72L62.4.14a.22.22 0 01.1-.02c.03 0 .07.01.1.03l-.03 1.4a.6.6 0 01.36-.13c.2 0 .37.19.37.4 0 .33-.36.47-.61.68-.06.04-.1.13-.16.13a.08.08 0 01-.09-.09zM50.81 4.76c0 .04-.03.07-.07.07a.07.07 0 01-.07-.07v-.6l-.34.12v.65c0 .04-.04.07-.07.07a.07.07 0 01-.07-.07v-.6l-.16.05c-.04.02-.08-.01-.08-.06v-.25c0-.03.02-.06.04-.06l.2-.08v-.65l-.16.05c-.04.02-.08-.01-.08-.06v-.26c0-.02.02-.05.04-.06l.2-.06v-.66c0-.03.03-.06.07-.06.03 0 .07.03.07.06v.6l.34-.12v-.64c0-.04.04-.07.07-.07.04 0 .07.03.07.07v.6l.16-.06c.04-.01.08.02.08.06v.26c0 .03-.02.05-.04.06l-.2.07v.66l.16-.06c.04-.01.08.02.08.06v.26c0 .03-.02.05-.04.06l-.2.07zm-.48-1.53v.66l.34-.12V3.1zM64.5 1.54c-.2 0-.29.17-.29.35 0 .32.24.56.56.56.2 0 .28-.16.28-.35a.54.54 0 00-.55-.56zm1.13.46c0 .17-.14.3-.3.38-.21.11-.45.16-.7.16-.24 0-.48-.05-.7-.16-.15-.09-.3-.21-.3-.38s.15-.3.3-.38c.22-.12.46-.16.7-.16.25 0 .49.04.7.16.16.08.3.2.3.38zM60.42 2.04c-.2 0-.29.17-.29.35 0 .32.24.56.56.56.2 0 .28-.16.28-.35a.54.54 0 00-.55-.56zm1.13.46c0 .17-.14.3-.3.38-.21.11-.45.16-.7.16-.24 0-.48-.05-.7-.16-.15-.09-.3-.21-.3-.38s.15-.3.3-.38c.22-.12.46-.16.7-.16.25 0 .49.04.7.16.16.08.3.2.3.38zM56.34 2.54c-.2 0-.28.17-.28.35 0 .32.24.56.55.56.2 0 .28-.16.28-.35a.54.54 0 00-.55-.56zm1.13.46c0 .17-.14.3-.3.38-.21.11-.45.16-.7.16-.24 0-.48-.05-.7-.16-.15-.09-.3-.21-.3-.38s.15-.3.3-.38c.22-.12.46-.16.7-.16.25 0 .49.04.7.16.16.08.3.2.3.38zM23.7 8.04c-.2 0-.28.17-.28.35 0 .32.24.56.56.56.2 0 .28-.16.28-.35a.54.54 0 00-.55-.56zm1.14.46c0 .17-.14.3-.3.38-.21.11-.45.16-.7.16-.24 0-.48-.05-.7-.16-.15-.09-.3-.21-.3-.38s.15-.3.3-.38c.22-.12.46-.16.7-.16.25 0 .49.04.7.16.16.08.3.2.3.38zM35.94 5.04c-.2 0-.28.17-.28.35 0 .32.24.56.56.56.2 0 .28-.16.28-.35a.54.54 0 00-.56-.56zm1.13.46c0 .17-.14.3-.29.38-.22.11-.46.16-.7.16-.24 0-.49-.05-.7-.16-.16-.09-.3-.21-.3-.38s.14-.3.3-.38c.21-.12.46-.16.7-.16.24 0 .48.04.7.16.15.08.3.2.3.38zM18.61 3.54c-.2 0-.28.17-.28.35 0 .32.24.56.55.56.2 0 .28-.16.28-.35a.54.54 0 00-.55-.56zm1.13.46c0 .17-.14.3-.3.38-.2.11-.45.16-.7.16-.24 0-.48-.05-.7-.16-.15-.09-.29-.21-.29-.38s.14-.3.3-.38c.21-.12.45-.16.7-.16.24 0 .48.04.7.16.15.08.29.2.29.38zM14.53 5.54c-.2 0-.28.17-.28.35 0 .32.24.56.55.56.2 0 .28-.16.28-.35a.54.54 0 00-.55-.56zm1.13.46c0 .17-.14.3-.3.38-.2.11-.45.16-.7.16-.24 0-.48-.05-.7-.16-.15-.09-.29-.21-.29-.38s.14-.3.3-.38c.21-.12.45-.16.7-.16.24 0 .48.04.7.16.15.08.3.2.3.38zM6.82 5c0-.12.09-.21.2-.21.12 0 .21.1.21.2 0 .12-.09.22-.2.22A.2.2 0 016.82 5zm0-1c0-.12.09-.21.2-.21.12 0 .21.1.21.2 0 .12-.09.22-.2.22A.2.2 0 016.82 4zm-1.3-.55c.69 0 1.17.35 1.17 1 0 1.05-1.05 1.66-2.06 2.08l-.04.01a.04.04 0 01-.04-.04l.01-.03c.81-.48 1.66-1.06 1.66-1.98 0-.48-.25-.95-.7-.95-.31 0-.55.23-.65.53a.34.34 0 01.17-.05c.22 0 .4.18.4.4 0 .23-.17.43-.4.43-.24 0-.45-.2-.45-.43 0-.53.42-.97.94-.97zM10.45 9.04c-.2 0-.28.17-.28.35 0 .32.24.56.56.56.2 0 .28-.16.28-.35a.54.54 0 00-.56-.56zm1.13.46c0 .17-.14.3-.29.38-.22.11-.46.16-.7.16-.24 0-.49-.05-.7-.16-.16-.09-.3-.21-.3-.38s.14-.3.3-.38c.21-.12.46-.16.7-.16.24 0 .48.04.7.16.15.08.3.2.3.38zM31.87 6.04c-.2 0-.29.17-.29.35 0 .32.24.56.56.56.2 0 .28-.16.28-.35a.54.54 0 00-.55-.56zm1.12.46c0 .17-.14.3-.29.38-.21.11-.45.16-.7.16-.24 0-.49-.05-.7-.16-.15-.09-.3-.21-.3-.38s.15-.3.3-.38c.21-.12.46-.16.7-.16.25 0 .49.04.7.16.15.08.3.2.3.38zM27.79 7.04c-.2 0-.29.17-.29.35 0 .32.24.56.56.56.2 0 .28-.16.28-.35a.54.54 0 00-.55-.56zm1.12.46c0 .17-.14.3-.29.38-.21.11-.45.16-.7.16-.24 0-.49-.05-.7-.16-.15-.09-.3-.21-.3-.38s.15-.3.3-.38c.21-.12.46-.16.7-.16.25 0 .49.04.7.16.15.08.3.2.3.38zM20.88 8.38c.37 0 .52-.37.52-.77 0-.1 0-.2-.02-.3-.08.02-.18.03-.27.03-.6 0-1.06-.55-1.06-1.2 0-.58.41-1.01.77-1.46a3.93 3.93 0 01-.16-1.15c0-.38.18-.74.47-.97l.03-.01.04.01c.22.28.42.81.42 1.19 0 .46-.26.83-.56 1.19l.2.71h.03c.5 0 .81.42.81.84 0 .33-.22.68-.56.79l.02.33-.01.2c-.03.38-.3.73-.68.73a.64.64 0 01-.63-.64c0-.18.16-.33.36-.33.17 0 .3.15.3.33a.3.3 0 01-.3.3.3.3 0 01-.06 0c.07.1.2.18.34.18zm.64-1.26c.2-.08.34-.3.34-.5a.6.6 0 00-.53-.6c.08.36.15.72.2 1.1zm-1.24-.71c0 .42.42.77.84.77.09 0 .17 0 .25-.02-.05-.4-.12-.77-.2-1.14-.24.03-.37.2-.37.37 0 .14.08.29.25.39.02.01.03.03.03.05 0 .05-.04.09-.08.09l-.04-.01a.67.67 0 01-.37-.6c0-.28.18-.55.5-.63l-.15-.59c-.33.4-.66.8-.66 1.32zm1.05-3.37a1 1 0 00-.5.86c0 .23.06.43.11.62.25-.31.44-.65.44-1.05 0-.18 0-.26-.05-.43z" fill="currentColor" stroke-width="0"/></svg>